<svg width="311" height="237" viewBox="0 0 311 237" fill="none" xmlns="http://www.w3.org/2000/svg">
<path d="M124.446 49.1483H123.312V18.0176C123.312 15.6515 122.846 13.3086 121.942 11.1226C121.038 8.93659 119.713 6.95034 118.043 5.27725C116.373 3.60416 114.39 2.27699 112.207 1.37152C110.025 0.466044 107.685 2.00475e-06 105.323 0H39.4749C34.704 -9.10959e-06 30.1286 1.89826 26.7551 5.27721C23.3816 8.65616 21.4863 13.239 21.4863 18.0176V188.803C21.4863 191.169 21.9516 193.512 22.8556 195.698C23.7596 197.884 25.0847 199.87 26.755 201.544C28.4254 203.217 30.4085 204.544 32.5909 205.449C34.7734 206.355 37.1126 206.821 39.4749 206.821H105.323C110.094 206.821 114.669 204.923 118.043 201.544C121.416 198.165 123.312 193.582 123.312 188.803V71.3077H124.446V49.1483Z" fill="#3F3D56"/>
<path d="M106.049 4.6875H97.4538C97.8491 5.65816 98 6.7113 97.8932 7.75413C97.7864 8.79696 97.4252 9.79748 96.8414 10.6676C96.2577 11.5376 95.4692 12.2505 94.5455 12.7435C93.6219 13.2365 92.5913 13.4944 91.5447 13.4944H53.8211C52.7745 13.4944 51.744 13.2365 50.8203 12.7435C49.8966 12.2505 49.1082 11.5376 48.5244 10.6676C47.9406 9.79748 47.5794 8.79696 47.4726 7.75413C47.3658 6.7113 47.5167 5.65816 47.912 4.6875H39.8839C38.1197 4.6875 36.3729 5.03553 34.743 5.71173C33.1132 6.38792 31.6323 7.37903 30.3848 8.62848C29.1374 9.87792 28.1479 11.3612 27.4728 12.9937C26.7977 14.6262 26.4502 16.3759 26.4502 18.1428V188.678C26.4502 190.445 26.7977 192.194 27.4728 193.827C28.1479 195.459 29.1374 196.943 30.3848 198.192C31.6322 199.442 33.1132 200.433 34.743 201.109C36.3729 201.785 38.1197 202.133 39.8838 202.133H106.049C107.813 202.133 109.56 201.785 111.19 201.109C112.82 200.433 114.301 199.442 115.548 198.192C116.796 196.943 117.785 195.459 118.46 193.827C119.135 192.195 119.483 190.445 119.483 188.678V18.1428C119.483 16.3759 119.135 14.6262 118.46 12.9937C117.785 11.3612 116.796 9.87792 115.548 8.62848C114.301 7.37903 112.82 6.38792 111.19 5.71173C109.56 5.03553 107.813 4.6875 106.049 4.6875Z" fill="white"/>
<path d="M72.9663 131.926C90.7368 131.926 105.143 117.497 105.143 99.698C105.143 81.8988 90.7368 67.4697 72.9663 67.4697C55.1958 67.4697 40.79 81.8988 40.79 99.698C40.79 117.497 55.1958 131.926 72.9663 131.926Z" fill="#FFC700"/>
<path d="M69.7777 111.992C69.0539 111.993 68.3492 111.759 67.7701 111.324L67.7342 111.297L60.1723 105.503C59.8221 105.234 59.5282 104.899 59.3074 104.516C59.0866 104.133 58.9432 103.711 58.8854 103.272C58.8276 102.834 58.8565 102.389 58.9706 101.962C59.0846 101.535 59.2815 101.135 59.55 100.784C59.8185 100.433 60.1533 100.139 60.5354 99.9175C60.9175 99.6963 61.3393 99.5527 61.7768 99.4948C62.2143 99.4369 62.6589 99.4659 63.0852 99.5801C63.5115 99.6944 63.9112 99.8916 64.2614 100.16L69.1594 103.923L80.7335 88.7984C81.0019 88.4478 81.3366 88.1535 81.7186 87.9324C82.1005 87.7113 82.5221 87.5678 82.9595 87.5099C83.3968 87.4521 83.8412 87.4811 84.2673 87.5952C84.6934 87.7094 85.093 87.9065 85.443 88.1753L85.444 88.1761L85.3722 88.276L85.446 88.1761C86.1522 88.7198 86.6143 89.5219 86.7308 90.4064C86.8473 91.2909 86.6086 92.1856 86.0673 92.8941L72.4536 110.676C72.1386 111.085 71.7337 111.417 71.2701 111.644C70.8066 111.872 70.2969 111.99 69.7807 111.988L69.7777 111.992Z" fill="white"/>
<path d="M200.055 14.9642C203.829 14.9642 206.888 11.8998 206.888 8.11979C206.888 4.33973 203.829 1.27539 200.055 1.27539C196.281 1.27539 193.222 4.33973 193.222 8.11979C193.222 11.8998 196.281 14.9642 200.055 14.9642Z" fill="#F1F1F1"/>
<path d="M285.024 106.559C287.325 106.559 289.19 104.69 289.19 102.386C289.19 100.081 287.325 98.2129 285.024 98.2129C282.723 98.2129 280.857 100.081 280.857 102.386C280.857 104.69 282.723 106.559 285.024 106.559Z" fill="#F1F1F1"/>
<path d="M163.096 118.008C165.397 118.008 167.262 116.14 167.262 113.835C167.262 111.53 165.397 109.662 163.096 109.662C160.795 109.662 158.93 111.53 158.93 113.835C158.93 116.14 160.795 118.008 163.096 118.008Z" fill="#F1F1F1"/>
<path d="M294.599 36.8801C294.789 35.5245 294.477 34.146 293.721 33.0058C292.964 31.8655 291.817 31.0428 290.495 30.6935C289.174 30.3441 287.77 30.4924 286.551 31.1103C285.331 31.7282 284.38 32.7727 283.878 34.0459L272.098 47.573L275.554 57.2426L287.401 41.4367C288.175 41.6848 288.993 41.76 289.798 41.6572C290.603 41.5543 291.376 41.2759 292.062 40.8414C292.748 40.407 293.331 39.8271 293.769 39.1427C294.208 38.4583 294.491 37.6859 294.599 36.8801Z" fill="#FFB6B6"/>
<path d="M245.767 89.5141L284.871 47.7132L279.597 39.314L230.55 80.8611L245.767 89.5141Z" fill="black"/>
<path d="M237.04 64.116C244.616 64.116 250.757 57.9647 250.757 50.3768C250.757 42.7889 244.616 36.6377 237.04 36.6377C229.465 36.6377 223.323 42.7889 223.323 50.3768C223.323 57.9647 229.465 64.116 237.04 64.116Z" fill="#2F2E41"/>
<path d="M238.143 42.6154C241.094 39.6174 244.666 37.3039 248.607 35.8378C251.136 34.8991 253.89 34.3192 256.534 34.8523C259.179 35.3853 261.679 37.2177 262.417 39.8166C263.02 41.9417 262.398 44.2298 261.461 46.2303C260.525 48.2308 259.275 50.0858 258.518 52.161C257.746 54.2783 257.513 56.5554 257.842 58.7855C258.171 61.0156 259.051 63.1281 260.402 64.9313C261.753 66.7344 263.532 68.1711 265.577 69.1109C267.623 70.0506 269.871 70.4638 272.117 70.3128C269.518 70.6617 267.123 71.8847 264.583 72.5358C262.044 73.1868 259.046 73.1426 257.159 71.3201C255.162 69.3919 255.122 66.2568 255.218 63.4803C255.362 59.3528 255.505 55.2254 255.649 51.0979C255.722 48.993 255.785 46.8206 255.027 44.8559C254.269 42.8913 252.468 41.1709 250.365 41.1888C248.771 41.2023 247.361 42.1693 246.083 43.123C244.805 44.0766 243.452 45.094 241.864 45.2359C240.277 45.3777 238.465 44.2011 238.583 42.6092L238.143 42.6154Z" fill="#2F2E41"/>
<path d="M184.941 142.629C183.625 142.995 182.219 142.865 180.992 142.263C179.764 141.661 178.8 140.629 178.282 139.362C177.763 138.095 177.727 136.682 178.179 135.39C178.631 134.099 179.541 133.018 180.735 132.353L192.585 118.887L202.608 121.056L188.511 134.886C188.858 135.621 189.039 136.424 189.043 137.237C189.046 138.05 188.871 138.854 188.531 139.592C188.191 140.33 187.693 140.985 187.073 141.509C186.453 142.034 185.725 142.416 184.941 142.629Z" fill="#FFB6B6"/>
<path d="M223.929 94.4201L194.394 131.554L185.391 127.414L220.106 73.2798L223.929 94.4201Z" fill="black"/>
<path d="M200.362 206.549L193.323 206.438L194.17 230.469H200.361L200.362 206.549Z" fill="#FFB6B6"/>
<path d="M201.941 228.444L189.748 228.444H189.747C187.686 228.444 185.71 229.264 184.253 230.724C182.795 232.183 181.977 234.163 181.977 236.227V236.48L201.94 236.48L201.941 228.444Z" fill="black"/>
<path d="M246.968 200.176L239.278 205.12L254.66 223.655L259.87 220.304L246.968 200.176Z" fill="#FFB6B6"/>
<path d="M260.107 217.746L249.846 224.344L249.846 224.344C248.111 225.459 246.891 227.219 246.452 229.236C246.013 231.252 246.392 233.361 247.505 235.098L247.641 235.311L264.441 224.508L260.107 217.746Z" fill="black"/>
<path d="M249.708 126.797C249.708 126.797 232.623 69.96 227.132 69.192C221.641 68.4239 212.795 83.7757 212.795 83.7757C201.325 98.4339 189.497 145.915 189.497 145.915C189.497 145.915 209.214 147.151 223.627 154.832C238.04 162.512 255.049 154.443 255.049 154.443L249.708 126.797Z" fill="black"/>
<path opacity="0.1" d="M249.708 126.797C249.708 126.797 232.623 69.9597 227.132 69.1917C221.641 68.4236 215.042 83.9312 215.042 83.9312C209.326 107.593 189.497 145.915 189.497 145.915C189.497 145.915 209.214 147.151 223.627 154.831C238.04 162.512 255.049 154.442 255.049 154.442L249.708 126.797Z" fill="white"/>
<path d="M235.691 109.792V138.352L239.047 179.724L255.812 211.018L247.81 216.743L224.949 186.975L215.906 157.417L201.706 222.849L191.037 222.086L198.447 131.365L212.507 105.83L235.691 109.792Z" fill="white"/>
<path d="M218.465 82.1677C213.13 87.5107 218.084 93.2354 218.084 93.2354L211.987 106.975L235.992 113.462L244.381 75.9171L238.665 69.8108C227.235 69.4292 227.228 69.1919 227.228 69.1919C225.226 71.155 218.465 82.1677 218.465 82.1677Z" fill="#FFC700"/>
<path d="M245.348 72.0273C244.258 71.2212 243.019 70.6398 241.702 70.3168C240.386 69.9938 239.019 69.9355 237.68 70.1454C236.342 70.3553 235.058 70.8292 233.903 71.5396C232.748 72.25 231.746 73.1828 230.954 74.284C224.919 82.7 219.339 96.2899 227.027 113.239C239.372 140.454 250.115 154.385 254.482 154.384C254.673 154.386 254.863 154.356 255.044 154.296C257.732 153.382 261.619 148.826 262.322 144.811C262.574 143.374 262.514 141.372 260.798 139.997C255.869 136.049 247.021 123.754 244.261 107.572C242.736 98.6299 245.694 90.4848 248.444 85.2266C249.605 83.0509 249.945 80.5287 249.401 78.1224C248.857 75.7161 247.465 73.5869 245.48 72.1251L245.348 72.0273Z" fill="black"/>
<path d="M237.746 62.766C242.639 60.0868 244.437 53.9418 241.762 49.0407C239.087 44.1396 232.952 42.3384 228.059 45.0176C223.166 47.6968 221.368 53.8418 224.042 58.7429C226.717 63.6439 232.852 65.4451 237.746 62.766Z" fill="#FFB6B6"/>
<path d="M218.702 53.1271H233.282L233.432 51.0305L234.179 53.1271H236.425L236.721 48.9716L238.202 53.1271H242.546V52.9213C242.543 50.0282 241.394 47.2546 239.352 45.2089C237.31 43.1632 234.541 42.0125 231.652 42.0093H229.597C226.708 42.0125 223.939 43.1632 221.897 45.2089C219.854 47.2546 218.705 50.0282 218.702 52.9213V53.1271Z" fill="#2F2E41"/>
<path d="M240.343 60.6638L246.565 58.6416V43.5073H234.812L235.103 43.7983C239.152 47.8479 243.654 62.2152 240.343 60.6638Z" fill="#2F2E41"/>
</svg>
