<svg width="88" height="20" viewBox="0 0 88 20" fill="none" xmlns="http://www.w3.org/2000/svg">
<path d="M0.858 9.848C0.858 15.308 4.654 19.13 10.036 19.13C14.378 19.13 17.654 16.712 18.694 12.76H13.806C13.052 14.32 11.674 15.1 9.984 15.1C7.254 15.1 5.382 13.072 5.382 9.848C5.382 6.624 7.254 4.596 9.984 4.596C11.674 4.596 13.052 5.376 13.806 6.936H18.694C17.654 2.984 14.378 0.539999 10.036 0.539999C4.654 0.539999 0.858 4.388 0.858 9.848ZM20.5327 11.72C20.5327 16.296 23.3667 19.208 26.9027 19.208C29.0607 19.208 30.5947 18.22 31.4007 16.946V19H35.8467V4.492H31.4007V6.546C30.6207 5.272 29.0867 4.284 26.9287 4.284C23.3667 4.284 20.5327 7.144 20.5327 11.72ZM31.4007 11.746C31.4007 14.06 29.9187 15.334 28.2287 15.334C26.5647 15.334 25.0567 14.034 25.0567 11.72C25.0567 9.406 26.5647 8.158 28.2287 8.158C29.9187 8.158 31.4007 9.432 31.4007 11.746ZM43.5092 12.266C43.5092 9.77 44.7312 9.042 46.8372 9.042H48.0592V4.336C46.1092 4.336 44.5232 5.376 43.5092 6.91V4.492H39.0632V19H43.5092V12.266Z" fill="black"/>
<path d="M60.5063 8.028V4.492H49.4303V8.158H55.4103L49.3783 15.464V19H60.6363V15.334H54.3443L60.5063 8.028ZM69.4787 7.846C70.9607 7.846 72.2087 8.756 72.2087 10.342H66.6447C66.9047 8.73 68.0227 7.846 69.4787 7.846ZM76.4207 14.19H71.6887C71.3247 14.97 70.6227 15.594 69.3747 15.594C67.9447 15.594 66.7747 14.71 66.6187 12.812H76.6807C76.7327 12.37 76.7587 11.928 76.7587 11.512C76.7587 7.092 73.7687 4.284 69.5307 4.284C65.2147 4.284 62.1987 7.144 62.1987 11.746C62.1987 16.348 65.2667 19.208 69.5307 19.208C73.1447 19.208 75.7187 17.024 76.4207 14.19ZM79.8062 0.956V4.492H78.0382V8.184H79.8062V13.956C79.8062 17.726 81.9122 19 84.9282 19H87.1902V15.23H85.6042C84.6162 15.23 84.2522 14.866 84.2522 14.008V8.184H87.1642V4.492H84.2522V0.956H79.8062Z" fill="#1870E2"/>
</svg>
