<svg width="88" height="20" viewBox="0 0 88 20" fill="none" xmlns="http://www.w3.org/2000/svg">
<path d="M0.858 9.848C0.858 8.04533 1.248 6.442 2.028 5.038C2.808 3.61667 3.89133 2.516 5.278 1.736C6.682 0.938666 8.268 0.539999 10.036 0.539999C12.2027 0.539999 14.0573 1.112 15.6 2.256C17.1427 3.4 18.174 4.96 18.694 6.936H13.806C13.442 6.17333 12.922 5.59267 12.246 5.194C11.5873 4.79533 10.8333 4.596 9.984 4.596C8.61467 4.596 7.50533 5.07267 6.656 6.026C5.80667 6.97933 5.382 8.25333 5.382 9.848C5.382 11.4427 5.80667 12.7167 6.656 13.67C7.50533 14.6233 8.61467 15.1 9.984 15.1C10.8333 15.1 11.5873 14.9007 12.246 14.502C12.922 14.1033 13.442 13.5227 13.806 12.76H18.694C18.174 14.736 17.1427 16.296 15.6 17.44C14.0573 18.5667 12.2027 19.13 10.036 19.13C8.268 19.13 6.682 18.74 5.278 17.96C3.89133 17.1627 2.808 16.062 2.028 14.658C1.248 13.254 0.858 11.6507 0.858 9.848ZM20.5327 11.72C20.5327 10.2293 20.81 8.92067 21.3647 7.794C21.9367 6.66733 22.708 5.80067 23.6787 5.194C24.6494 4.58733 25.7327 4.284 26.9287 4.284C27.9514 4.284 28.844 4.492 29.6067 4.908C30.3867 5.324 30.9847 5.87 31.4007 6.546V4.492H35.8467V19H31.4007V16.946C30.9674 17.622 30.3607 18.168 29.5807 18.584C28.818 19 27.9254 19.208 26.9027 19.208C25.724 19.208 24.6494 18.9047 23.6787 18.298C22.708 17.674 21.9367 16.7987 21.3647 15.672C20.81 14.528 20.5327 13.2107 20.5327 11.72ZM31.4007 11.746C31.4007 10.6367 31.0887 9.76133 30.4647 9.12C29.858 8.47867 29.1127 8.158 28.2287 8.158C27.3447 8.158 26.5907 8.47867 25.9667 9.12C25.36 9.744 25.0567 10.6107 25.0567 11.72C25.0567 12.8293 25.36 13.7133 25.9667 14.372C26.5907 15.0133 27.3447 15.334 28.2287 15.334C29.1127 15.334 29.858 15.0133 30.4647 14.372C31.0887 13.7307 31.4007 12.8553 31.4007 11.746ZM43.5092 6.91C44.0292 6.11267 44.6792 5.48867 45.4592 5.038C46.2392 4.57 47.1058 4.336 48.0592 4.336V9.042H46.8372C45.7278 9.042 44.8958 9.28467 44.3412 9.77C43.7865 10.238 43.5092 11.07 43.5092 12.266V19H39.0632V4.492H43.5092V6.91Z" fill="black"/>
<path d="M54.3443 15.334H60.6363V19H49.3783V15.464L55.4103 8.158H49.4303V4.492H60.5063V8.028L54.3443 15.334ZM76.7587 11.512C76.7587 11.928 76.7327 12.3613 76.6807 12.812H66.6187C66.688 13.7133 66.974 14.4067 67.4767 14.892C67.9967 15.36 68.6294 15.594 69.3747 15.594C70.484 15.594 71.2554 15.126 71.6887 14.19H76.4207C76.178 15.1433 75.736 16.0013 75.0947 16.764C74.4707 17.5267 73.682 18.1247 72.7287 18.558C71.7754 18.9913 70.7094 19.208 69.5307 19.208C68.1094 19.208 66.844 18.9047 65.7347 18.298C64.6254 17.6913 63.7587 16.8247 63.1347 15.698C62.5107 14.5713 62.1987 13.254 62.1987 11.746C62.1987 10.238 62.502 8.92067 63.1087 7.794C63.7327 6.66733 64.5994 5.80067 65.7087 5.194C66.818 4.58733 68.092 4.284 69.5307 4.284C70.9347 4.284 72.1827 4.57867 73.2747 5.168C74.3667 5.75733 75.216 6.598 75.8227 7.69C76.4467 8.782 76.7587 10.056 76.7587 11.512ZM72.2087 10.342C72.2087 9.57933 71.9487 8.97267 71.4287 8.522C70.9087 8.07133 70.2587 7.846 69.4787 7.846C68.7334 7.846 68.1007 8.06267 67.5807 8.496C67.078 8.92933 66.766 9.54467 66.6447 10.342H72.2087ZM87.1902 15.23V19H84.9282C83.3162 19 82.0595 18.61 81.1582 17.83C80.2569 17.0327 79.8062 15.7413 79.8062 13.956V8.184H78.0382V4.492H79.8062V0.956H84.2522V4.492H87.1642V8.184H84.2522V14.008C84.2522 14.4413 84.3562 14.7533 84.5642 14.944C84.7722 15.1347 85.1189 15.23 85.6042 15.23H87.1902Z" fill="#1870E2"/>
</svg>
