<svg width="217" height="227" viewBox="0 0 217 227" fill="none" xmlns="http://www.w3.org/2000/svg">
<g clip-path="url(#clip0_789_976)">
<path d="M199.024 194.206L198 192.5L196.984 190.085C190.76 178.751 180.582 168.957 180.582 168.957C180.582 168.957 159.465 189.273 159.465 205.243C159.465 221.213 168.919 226.79 180.582 226.79C192.244 226.79 201.699 221.213 201.699 205.243C201.699 201.689 200.651 197.919 199.024 194.206Z" fill="#F2F2F2"/>
<path d="M163.28 49.0821L55.1678 35.2408C54.8765 35.2033 54.5832 35.1842 54.2896 35.1836C54.0002 35.1831 53.711 35.2014 53.424 35.2385C53.1374 35.2755 52.8536 35.3313 52.5742 35.4055C52.2916 35.4813 52.0142 35.5753 51.7437 35.687C51.4786 35.7962 51.2205 35.9215 50.9706 36.0622C50.7172 36.204 50.4725 36.3606 50.2376 36.5313C49.9973 36.7065 49.7671 36.8952 49.5481 37.0966C49.322 37.3038 49.1071 37.523 48.9044 37.7533C48.6963 37.9905 48.5005 38.2382 48.3177 38.4955C48.133 38.756 47.9597 39.0269 47.7977 39.3084C47.6358 39.5908 47.4855 39.8845 47.3469 40.1894C47.2083 40.4943 47.0819 40.8095 46.9676 41.1351C46.8493 41.4716 46.7456 41.8156 46.6565 42.1671C46.5674 42.5186 46.493 42.8762 46.4332 43.2399C46.3747 43.6033 46.3298 43.9727 46.2987 44.348C46.2675 44.7232 46.252 45.1031 46.252 45.4874C46.2532 45.8714 46.2688 46.2542 46.2987 46.6358C46.3286 47.0173 46.3734 47.3957 46.4332 47.771C46.4936 48.1478 46.5684 48.5209 46.6574 48.8903C46.7465 49.2596 46.8502 49.6247 46.9685 49.9856C47.0828 50.3343 47.2093 50.675 47.3479 51.0078C47.4864 51.3409 47.6367 51.6648 47.7987 51.9798C47.9606 52.2947 48.1339 52.6005 48.3186 52.8973C48.503 53.1954 48.6985 53.4821 48.9053 53.7577C49.1121 54.0332 49.3267 54.296 49.549 54.5462C49.7714 54.7948 50.0012 55.0294 50.2385 55.2499C50.4758 55.4703 50.7202 55.6763 50.9715 55.8677C51.2201 56.0571 51.4781 56.2338 51.7446 56.3968C52.013 56.5612 52.2903 56.7105 52.5752 56.8439C52.8516 56.9732 53.1353 57.0861 53.4249 57.1821C53.7085 57.2761 53.9976 57.3527 54.2905 57.4115C54.5805 57.4695 54.8738 57.5095 55.1687 57.5311L163.281 65.4725C163.596 65.4955 163.912 65.4637 164.215 65.3787C164.37 65.3355 164.521 65.2796 164.666 65.2117C164.818 65.1407 164.964 65.0584 165.104 64.9654C165.245 64.8711 165.38 64.7677 165.508 64.6558C165.643 64.5383 165.77 64.413 165.89 64.2805C166.016 64.1405 166.135 63.9939 166.246 63.8414C166.361 63.6844 166.471 63.5171 166.577 63.3395C166.683 63.1618 166.783 62.9765 166.878 62.7836C166.972 62.5906 167.06 62.3902 167.142 62.1822C167.225 61.9745 167.301 61.7597 167.371 61.5376C167.441 61.3156 167.505 61.087 167.563 60.8518C167.624 60.6085 167.676 60.3608 167.72 60.1088C167.764 59.8567 167.801 59.6009 167.832 59.3413C167.863 59.0818 167.885 58.8187 167.9 58.5523C167.915 58.2859 167.923 58.0164 167.923 57.744C167.922 57.472 167.914 57.2011 167.9 56.9316C167.886 56.662 167.864 56.3944 167.832 56.1289C167.802 55.8634 167.765 55.6001 167.72 55.339C167.675 55.0778 167.623 54.8195 167.563 54.564C167.505 54.3169 167.441 54.0755 167.371 53.8397C167.302 53.607 167.226 53.3778 167.142 53.152C167.059 52.9262 166.971 52.7073 166.878 52.4953C166.784 52.2836 166.683 52.0781 166.577 51.8789C166.471 51.6797 166.361 51.4901 166.246 51.3103C166.131 51.1305 166.013 50.96 165.89 50.799C165.767 50.6379 165.64 50.4872 165.508 50.3468C165.381 50.2092 165.246 50.0786 165.104 49.9556C164.965 49.835 164.819 49.7233 164.666 49.6211C164.522 49.5246 164.372 49.4383 164.215 49.3631C164.066 49.2911 163.911 49.2309 163.753 49.1829C163.598 49.1364 163.44 49.1027 163.28 49.0821Z" fill="#FFC700"/>
<path d="M163.28 80.2996L55.1678 77.6994C54.5813 77.6848 53.9954 77.7449 53.424 77.8781C53.1357 77.9455 52.8519 78.0309 52.5742 78.1338C52.2903 78.2389 52.0129 78.3611 51.7437 78.4997C51.4777 78.6365 51.2196 78.7881 50.9705 78.9538C50.7167 79.1226 50.472 79.305 50.2376 79.5003C49.9971 79.7006 49.7669 79.9133 49.5481 80.1373C49.3254 80.365 49.1109 80.607 48.9044 80.8635C48.6979 81.1205 48.5023 81.3884 48.3176 81.667C48.133 81.9457 47.9597 82.2346 47.7977 82.5339C47.6358 82.8332 47.4855 83.1425 47.3469 83.4618C47.2083 83.7811 47.0819 84.1095 46.9676 84.4469C46.8493 84.7962 46.7456 85.1512 46.6565 85.5118C46.5674 85.8723 46.493 86.2376 46.4332 86.6076C46.3747 86.9776 46.3298 87.3517 46.2987 87.7302C46.2675 88.1086 46.252 88.49 46.252 88.8743C46.2532 89.2586 46.2688 89.6399 46.2987 90.018C46.3286 90.3961 46.3734 90.7699 46.4332 91.1396C46.4936 91.5074 46.5684 91.8712 46.6574 92.2312C46.7465 92.5911 46.8502 92.9455 46.9685 93.2942C47.0828 93.6325 47.2093 93.9609 47.3478 94.2793C47.4864 94.5976 47.6367 94.906 47.7986 95.2043C47.9606 95.5027 48.1339 95.7906 48.3186 96.0679C48.5029 96.3444 48.6985 96.6102 48.9053 96.8654C49.1121 97.1206 49.3267 97.3613 49.549 97.5874C49.7679 97.8101 49.998 98.0213 50.2385 98.2202C50.4729 98.4139 50.7176 98.5948 50.9715 98.762C51.2206 98.926 51.4787 99.0759 51.7446 99.2109C52.0139 99.3479 52.2913 99.4684 52.5752 99.5717C52.8529 99.6727 53.1367 99.7562 53.4249 99.8217C53.7102 99.8869 53.9993 99.934 54.2905 99.9624C54.5824 99.9905 54.8757 100 55.1687 99.991L163.28 96.6881C163.439 96.6832 163.597 96.6649 163.753 96.6332C163.91 96.6011 164.065 96.5561 164.215 96.4986C164.371 96.4389 164.522 96.3674 164.666 96.2847C164.819 96.1976 164.965 96.1001 165.104 95.9929C165.246 95.8837 165.381 95.7662 165.508 95.6411C165.643 95.5097 165.77 95.3713 165.89 95.2264C166.012 95.0788 166.131 94.9201 166.246 94.7503C166.361 94.5804 166.471 94.4017 166.577 94.2141C166.683 94.0252 166.783 93.8294 166.878 93.6268C166.972 93.4241 167.06 93.2146 167.142 92.9982C167.225 92.7783 167.301 92.5546 167.371 92.3269C167.441 92.0992 167.505 91.8647 167.563 91.6232C167.624 91.3762 167.676 91.1243 167.72 90.8675C167.764 90.6108 167.801 90.351 167.832 90.0883C167.863 89.8247 167.885 89.5589 167.9 89.2909C167.915 89.0229 167.923 88.7527 167.923 88.4803C167.922 88.2104 167.914 87.9408 167.9 87.6715C167.886 87.4023 167.864 87.1364 167.832 86.8741C167.802 86.6107 167.765 86.3513 167.72 86.0958C167.675 85.8403 167.623 85.5875 167.563 85.3373C167.505 85.0959 167.441 84.8607 167.371 84.6318C167.301 84.4028 167.225 84.1805 167.142 83.9647C167.061 83.7489 166.972 83.5399 166.878 83.3375C166.784 83.1352 166.684 82.9402 166.578 82.7526C166.472 82.5646 166.361 82.3863 166.247 82.2178C166.132 82.0492 166.013 81.8911 165.89 81.7435C165.77 81.5993 165.643 81.4617 165.509 81.3312C165.381 81.2069 165.246 81.0904 165.104 80.9822C164.965 80.8758 164.819 80.7793 164.667 80.6932C164.522 80.6117 164.371 80.5414 164.215 80.483C164.065 80.4264 163.91 80.3823 163.753 80.3512C163.597 80.3206 163.439 80.3034 163.28 80.2996Z" fill="#E4E4E4"/>
<path d="M163.28 109.565L55.1678 117.505C54.8729 117.527 54.5796 117.567 54.2896 117.625C53.9967 117.684 53.7076 117.76 53.424 117.854C53.1344 117.95 52.8507 118.063 52.5742 118.193C52.2893 118.326 52.012 118.475 51.7437 118.64C51.4772 118.803 51.2191 118.979 50.9706 119.169C50.7189 119.362 50.4746 119.568 50.2376 119.787C50.0006 120.006 49.7708 120.241 49.5481 120.49C49.3254 120.74 49.1109 121.002 48.9044 121.279C48.6979 121.556 48.5023 121.843 48.3177 122.14C48.133 122.437 47.9597 122.743 47.7977 123.058C47.6358 123.373 47.4855 123.697 47.3469 124.03C47.2083 124.362 47.0819 124.703 46.9676 125.052C46.8493 125.412 46.7456 125.777 46.6565 126.147C46.5674 126.517 46.493 126.89 46.4332 127.265C46.3747 127.641 46.3298 128.019 46.2987 128.401C46.2675 128.782 46.252 129.165 46.252 129.549C46.2532 129.933 46.2688 130.313 46.2987 130.689C46.3286 131.064 46.3734 131.433 46.4332 131.797C46.4936 132.162 46.5684 132.519 46.6574 132.87C46.7465 133.221 46.8502 133.565 46.9685 133.902C47.0828 134.228 47.2093 134.543 47.3479 134.848C47.4864 135.153 47.6367 135.447 47.7987 135.729C47.9606 136.011 48.1339 136.282 48.3186 136.542C48.5014 136.799 48.6972 137.047 48.9053 137.284C49.1081 137.514 49.3229 137.734 49.549 137.941C49.768 138.142 49.9982 138.331 50.2385 138.506C50.4734 138.677 50.7182 138.833 50.9715 138.975C51.2214 139.116 51.4796 139.241 51.7446 139.35C52.0151 139.462 52.2926 139.556 52.5752 139.632C52.8545 139.706 53.1383 139.762 53.4249 139.799C53.712 139.836 54.0011 139.854 54.2905 139.854C54.5842 139.853 54.8775 139.834 55.1687 139.797L163.28 125.959C163.44 125.938 163.598 125.904 163.753 125.858C163.911 125.81 164.066 125.75 164.215 125.678C164.372 125.602 164.522 125.516 164.666 125.42C164.819 125.317 164.965 125.206 165.104 125.085C165.246 124.962 165.381 124.831 165.508 124.694C165.638 124.553 165.765 124.402 165.89 124.242C166.012 124.081 166.131 123.91 166.246 123.73C166.361 123.55 166.471 123.361 166.577 123.162C166.683 122.964 166.783 122.759 166.878 122.545C166.972 122.332 167.06 122.113 167.142 121.889C167.225 121.663 167.301 121.433 167.371 121.197C167.441 120.961 167.505 120.719 167.563 120.472C167.624 120.217 167.676 119.958 167.72 119.697C167.764 119.436 167.801 119.173 167.832 118.907C167.863 118.642 167.885 118.374 167.9 118.104C167.915 117.835 167.923 117.564 167.923 117.291C167.921 117.021 167.914 116.752 167.9 116.486C167.886 116.219 167.863 115.956 167.832 115.697C167.802 115.436 167.765 115.18 167.72 114.928C167.675 114.676 167.623 114.428 167.563 114.185C167.505 113.949 167.441 113.721 167.371 113.499C167.302 113.277 167.226 113.062 167.143 112.854C167.06 112.646 166.972 112.446 166.878 112.253C166.783 112.061 166.682 111.877 166.576 111.698C166.47 111.52 166.36 111.353 166.245 111.196C166.134 111.044 166.015 110.897 165.889 110.757C165.769 110.625 165.642 110.5 165.507 110.382C165.38 110.27 165.244 110.167 165.103 110.072C164.963 109.979 164.817 109.897 164.665 109.826C164.52 109.758 164.369 109.702 164.214 109.659C163.911 109.574 163.595 109.542 163.28 109.565Z" fill="#E4E4E4"/>
<path d="M104.353 111.02C105.038 112.164 106.117 113.015 107.385 113.412C108.654 113.809 110.023 113.724 111.234 113.174C112.445 112.625 113.412 111.647 113.952 110.428C114.493 109.209 114.569 107.834 114.166 106.562L135.119 63.3347L125.089 57.229L106.994 103.146C106.925 103.172 106.857 103.201 106.79 103.23C106.723 103.26 106.656 103.291 106.589 103.323C106.523 103.355 106.456 103.389 106.391 103.425C106.325 103.46 106.26 103.498 106.196 103.537C104.963 104.284 104.077 105.492 103.731 106.895C103.385 108.298 103.609 109.782 104.352 111.02L104.353 111.02Z" fill="#FFB6B6"/>
<path d="M131.12 80.0034L116.234 76.1721C116.234 76.1721 116.72 75.0689 117.51 73.2412C118.3 71.4134 119.404 68.8647 120.645 65.9711C121.887 63.0774 123.264 59.8442 124.609 56.6482C125.955 53.4523 127.263 50.2946 128.365 47.5576C129.467 44.8206 130.719 43.1813 131.977 42.2627C133.019 41.4679 134.33 41.1178 135.627 41.2883C136.635 41.4391 137.598 41.8074 138.451 42.3679C138.855 42.6201 139.234 42.9093 139.585 43.2319L143.036 49.5346L131.12 80.0034Z" fill="#CCCCCC"/>
<path d="M11.9919 76.5798C11.6314 76.6065 11.2727 76.6535 10.9175 76.7205C10.5599 76.7877 10.2064 76.8748 9.85846 76.9813C9.50523 77.0897 9.15809 77.2171 8.8186 77.3632C8.47113 77.5126 8.13169 77.6801 7.80164 77.8651C7.47869 78.0474 7.16306 78.2457 6.85474 78.4599C6.54643 78.6742 6.24698 78.9043 5.95642 79.1504C5.66617 79.3959 5.38449 79.6577 5.11137 79.9357C4.83824 80.2137 4.5751 80.5069 4.32191 80.8153C4.06872 81.1236 3.82876 81.4431 3.60203 81.7737C3.37531 82.1042 3.1626 82.4448 2.96392 82.7954C2.7671 83.1466 2.58303 83.5073 2.41175 83.8775C2.24046 84.2478 2.08476 84.6267 1.94461 85.0142C1.79856 85.416 1.67071 85.8221 1.56109 86.2324C1.45146 86.6427 1.36006 87.0565 1.28688 87.4737C1.21338 87.8909 1.15826 88.3109 1.12151 88.7337C1.08476 89.1565 1.0664 89.581 1.06641 90.0073C1.06641 90.4335 1.08477 90.8543 1.12151 91.2696C1.15825 91.6849 1.21337 92.0938 1.28688 92.4963C1.36006 92.8988 1.45147 93.2941 1.56109 93.6822C1.67071 94.0703 1.79809 94.4504 1.94322 94.8226C2.0846 95.1819 2.24031 95.5295 2.41035 95.8654C2.57843 96.1979 2.76302 96.5216 2.96344 96.8355C3.16073 97.1434 3.37373 97.4409 3.60157 97.7268C3.82724 98.0109 4.06768 98.2829 4.3219 98.5416C4.57191 98.7959 4.83545 99.0365 5.11137 99.2622C5.38155 99.4832 5.66383 99.6888 5.95689 99.8781C6.53523 100.252 7.15435 100.558 7.8021 100.79C8.46612 101.028 9.15617 101.186 9.85751 101.259C10.2093 101.296 10.5629 101.311 10.9165 101.306C11.2758 101.301 11.6345 101.275 11.991 101.23C12.3506 101.184 12.7074 101.118 13.0598 101.032C13.4132 100.946 13.7617 100.841 14.1038 100.717C14.4498 100.592 14.789 100.448 15.1199 100.287C15.457 100.123 15.7857 99.9416 16.1046 99.7439C16.4151 99.5494 16.7175 99.3408 17.0118 99.1182C17.3061 98.8955 17.5912 98.6581 17.8671 98.4061C18.143 98.154 18.4095 97.8882 18.6664 97.6086C18.9233 97.329 19.1703 97.0357 19.4073 96.7286C19.6458 96.4218 19.8704 96.1058 20.0809 95.7805C20.2914 95.4553 20.4886 95.1214 20.6723 94.779C20.8561 94.4365 21.0261 94.0861 21.1824 93.7277C21.3388 93.3694 21.4813 93.0035 21.6099 92.6301C21.7432 92.2435 21.8598 91.8537 21.9598 91.4606C22.0597 91.0675 22.1432 90.6715 22.2101 90.2728C22.2768 89.8738 22.3269 89.4727 22.3606 89.0696C22.3942 88.6665 22.411 88.2616 22.411 87.8551C22.4107 87.4485 22.3939 87.047 22.3606 86.6504C22.3272 86.2539 22.2771 85.863 22.2101 85.4777C22.1435 85.093 22.06 84.714 21.9598 84.3406C21.8595 83.9672 21.7429 83.6008 21.6099 83.2415C21.4806 82.8937 21.3382 82.5564 21.1824 82.2296C21.0245 81.9037 20.8537 81.5876 20.67 81.2811C20.3062 80.6754 19.8832 80.1076 19.4073 79.5862C19.1737 79.3298 18.927 79.0857 18.6683 78.8549C18.4134 78.6284 18.1466 78.4159 17.869 78.2183C17.594 78.0227 17.3085 77.8424 17.0137 77.6784C16.7191 77.5145 16.4156 77.3673 16.1046 77.2375C15.4626 76.9689 14.7911 76.7776 14.1043 76.6675C13.7586 76.6122 13.41 76.5772 13.0603 76.5629C12.7039 76.5484 12.3471 76.5544 11.9914 76.5807" fill="#E4E4E4"/>
<path d="M11.9919 120.675C11.6314 120.702 11.2727 120.749 10.9175 120.816C10.5599 120.883 10.2064 120.971 9.85846 121.077C9.50523 121.185 9.1581 121.313 8.8186 121.459C8.47113 121.608 8.13169 121.776 7.80164 121.961C7.47869 122.143 7.16306 122.341 6.85474 122.556C6.54643 122.77 6.24698 123 5.95642 123.246C5.66617 123.492 5.38449 123.753 5.11137 124.031C4.83824 124.309 4.5751 124.603 4.32191 124.911C4.06872 125.219 3.82876 125.539 3.60203 125.869C3.37531 126.2 3.1626 126.54 2.96392 126.891C2.7671 127.242 2.58303 127.603 2.41175 127.973C2.24046 128.344 2.08476 128.722 1.94461 129.11C1.79856 129.512 1.67071 129.918 1.56109 130.328C1.45146 130.738 1.36006 131.152 1.28688 131.569C1.21338 131.987 1.15826 132.407 1.12151 132.829C1.08476 133.252 1.0664 133.677 1.06641 134.103C1.06641 134.529 1.08477 134.95 1.12151 135.365C1.15825 135.781 1.21337 136.19 1.28688 136.592C1.36006 136.995 1.45147 137.39 1.56109 137.778C1.67071 138.166 1.79809 138.546 1.94322 138.918C2.0846 139.278 2.24031 139.625 2.41035 139.961C2.57843 140.294 2.76302 140.617 2.96344 140.931C3.16073 141.239 3.37373 141.537 3.60157 141.822C3.82724 142.107 4.06768 142.379 4.3219 142.637C4.57191 142.892 4.83545 143.132 5.11137 143.358C5.38155 143.579 5.66383 143.784 5.95689 143.974C6.53524 144.348 7.15435 144.654 7.8021 144.886C8.46612 145.124 9.15617 145.281 9.85751 145.355C10.2093 145.391 10.5629 145.407 10.9165 145.402C11.2758 145.397 11.6345 145.371 11.991 145.325C12.3506 145.279 12.7074 145.213 13.0598 145.128C13.4132 145.042 13.7617 144.937 14.1038 144.813C14.4498 144.688 14.789 144.544 15.1199 144.383C15.457 144.219 15.7857 144.037 16.1046 143.84C16.4151 143.645 16.7175 143.437 17.0118 143.214C17.3061 142.991 17.5912 142.754 17.8671 142.502C18.143 142.25 18.4095 141.984 18.6664 141.704C18.9233 141.425 19.1703 141.131 19.4073 140.824C19.6458 140.517 19.8704 140.201 20.0809 139.876C20.2914 139.551 20.4886 139.217 20.6723 138.875C20.8561 138.532 21.0261 138.182 21.1824 137.823C21.3388 137.465 21.4813 137.099 21.6099 136.726C21.7432 136.339 21.8598 135.949 21.9598 135.556C22.0597 135.163 22.1432 134.767 22.2101 134.369C22.2768 133.969 22.3269 133.568 22.3606 133.165C22.3942 132.762 22.411 132.357 22.411 131.951C22.4107 131.544 22.3939 131.143 22.3606 130.746C22.3272 130.35 22.2771 129.959 22.2101 129.573C22.1435 129.189 22.06 128.81 21.9598 128.436C21.8595 128.063 21.7429 127.696 21.6099 127.337C21.4806 126.989 21.3382 126.652 21.1824 126.325C21.0245 125.999 20.8537 125.683 20.67 125.377C20.3062 124.771 19.8832 124.203 19.4073 123.682C19.1737 123.425 18.927 123.181 18.6683 122.951C18.4134 122.724 18.1466 122.512 17.869 122.314C17.594 122.118 17.3085 121.938 17.0137 121.774C16.7191 121.61 16.4156 121.463 16.1046 121.333C15.4626 121.065 14.7911 120.873 14.1043 120.763C13.7586 120.708 13.41 120.673 13.0603 120.659C12.7039 120.644 12.3471 120.65 11.9914 120.676" fill="#E4E4E4"/>
<path d="M11.9941 28.8106C11.6356 28.8019 11.2768 28.8136 10.9197 28.8458C10.5639 28.8779 10.2104 28.9305 9.86066 29.0034C9.50897 29.0772 9.16177 29.1712 8.82079 29.2849C8.47456 29.4 8.13505 29.5345 7.80383 29.6878C7.47964 29.8378 7.16356 30.0049 6.85694 30.1884C6.54728 30.3737 6.24744 30.575 5.95862 30.7916C5.66514 31.0117 5.38294 31.2466 5.1131 31.4953C4.83873 31.7483 4.57511 32.0165 4.32223 32.2998C4.06904 32.5834 3.82908 32.8796 3.60236 33.1883C3.37563 33.4969 3.16293 33.8169 2.96424 34.148C2.76648 34.4836 2.58196 34.8275 2.41068 35.1796C2.23939 35.5317 2.08369 35.8954 1.94354 36.2707C1.79842 36.6576 1.67104 37.0508 1.56141 37.4505C1.45179 37.8502 1.36038 38.255 1.2872 38.665C1.2137 39.0762 1.15858 39.4909 1.12184 39.9091C1.08509 40.3272 1.06672 40.7494 1.06673 41.1756C1.06673 41.6012 1.0851 42.0234 1.12184 42.4422C1.15857 42.8609 1.21369 43.2752 1.2872 43.6848C1.36038 44.0945 1.45179 44.4987 1.56141 44.8975C1.67104 45.2962 1.79841 45.6887 1.94354 46.0749C2.08492 46.448 2.24063 46.8108 2.41068 47.1632C2.58196 47.5144 2.76694 47.8551 2.96562 48.1854C3.16429 48.5156 3.37701 48.8342 3.60374 49.1409C3.83015 49.4487 4.0701 49.7433 4.32361 50.0247C4.57711 50.3062 4.84027 50.572 5.11308 50.8222C5.3815 51.07 5.6623 51.3039 5.95439 51.523C6.24325 51.7377 6.5431 51.937 6.85271 52.1202C7.15939 52.3017 7.47547 52.4668 7.79961 52.6146C8.1309 52.7658 8.47044 52.8982 8.81658 53.011C9.4977 53.2323 10.202 53.374 10.9154 53.4332C11.6299 53.4927 12.3487 53.4708 13.0582 53.368C13.41 53.3169 13.7586 53.2458 14.1023 53.155C14.4469 53.0638 14.7861 52.9533 15.1183 52.8238C15.4544 52.693 15.7832 52.5437 16.103 52.3768C16.415 52.2141 16.7184 52.0354 17.0121 51.8415C17.3075 51.6464 17.593 51.4364 17.8674 51.2125C18.1434 50.9873 18.4098 50.7475 18.6667 50.4929C18.9236 50.2383 19.1706 49.9691 19.4076 49.6851C19.6462 49.4011 19.8707 49.1069 20.0812 48.8023C20.2917 48.4977 20.4889 48.183 20.6726 47.8584C20.857 47.5338 21.027 47.2 21.1828 46.8569C21.3385 46.5138 21.4809 46.1625 21.6102 45.8028C21.7435 45.4294 21.8601 45.051 21.9601 44.6676C22.06 44.2842 22.1435 43.8964 22.2105 43.5042C22.2771 43.1105 22.3272 42.7137 22.3609 42.3137C22.3945 41.9137 22.4113 41.5104 22.4113 41.1038C22.411 40.6976 22.3942 40.2945 22.3609 39.8945C22.3276 39.4945 22.2774 39.0988 22.2105 38.7072C22.1438 38.3154 22.0604 37.9279 21.9601 37.5448C21.8598 37.1617 21.7432 36.7839 21.6102 36.4114C21.4809 36.0515 21.3385 35.7004 21.1828 35.3583C21.027 35.0162 20.8562 34.683 20.6703 34.3587C20.4866 34.0372 20.2894 33.7244 20.0789 33.4205C19.8683 33.1165 19.6446 32.8238 19.4076 32.5423C19.1722 32.2611 18.9258 31.9939 18.6686 31.7406C18.4113 31.4873 18.1449 31.2491 17.8693 31.0262C17.595 30.8036 17.3097 30.595 17.0144 30.4013C16.7207 30.2092 16.4173 30.0324 16.1054 29.8717C15.7854 29.7067 15.4567 29.5595 15.1206 29.4308C14.7883 29.3035 14.4491 29.1951 14.1046 29.1061C13.7608 29.0175 13.4122 28.9486 13.0605 28.8997C12.7062 28.8507 12.3493 28.8219 11.9917 28.8134M11.9917 27.6397C13.561 27.6829 15.1001 28.0829 16.4931 28.8097C17.8774 29.5366 19.1045 30.532 20.1032 31.7383C21.1471 32.9954 21.9601 34.4289 22.5043 35.9719C23.6696 39.293 23.6696 42.9143 22.5043 46.2353C21.9596 47.7828 21.1467 49.2213 20.1032 50.4845C19.1043 51.6965 17.8775 52.6989 16.4926 53.4346C15.1014 54.1701 13.5626 54.5801 11.9913 54.6341C10.4103 54.6862 8.83859 54.3716 7.39833 53.7147C5.94434 53.0459 4.64359 52.0827 3.57758 50.8855C2.44558 49.6178 1.55961 48.1486 0.96533 46.5539C-0.321777 43.0821 -0.321777 39.2612 0.96533 35.7894C1.56019 34.1899 2.44599 32.7153 3.57758 31.4409C4.64326 30.237 5.94368 29.2656 7.39833 28.5869C8.83747 27.9207 10.41 27.596 11.9941 27.6379L11.9917 27.6397Z" fill="#FFC700"/>
<path d="M11.9931 44.4547L8.31348 36.7568L9.18703 36.1854L12.2178 42.5094L24.9437 27.4888L25.714 28.313L11.9931 44.4547Z" fill="#FFC700"/>
<path d="M145.911 196.432L136.802 196.396L139.739 220.299L145.911 220.33V196.432Z" fill="#FFB6B6"/>
<path d="M147.485 226.344L127.595 226.238V225.986C127.594 225.473 127.644 224.962 127.743 224.459C127.939 223.467 128.329 222.524 128.89 221.684C129.46 220.833 130.191 220.103 131.041 219.535C131.88 218.975 132.821 218.587 133.81 218.395C134.311 218.299 134.821 218.251 135.332 218.255L147.485 218.315V226.344Z" fill="#2F2E41"/>
<path d="M116.744 196.319L107.661 196.283L110.589 220.153L116.744 220.184V196.319Z" fill="#FFB6B6"/>
<path d="M118.314 226.189L98.4766 226.084V225.832C98.4764 225.32 98.5262 224.809 98.6251 224.307C98.8201 223.317 99.2088 222.375 99.7687 221.536C100.337 220.686 101.066 219.957 101.915 219.389C102.751 218.83 103.69 218.444 104.676 218.252C105.177 218.155 105.685 218.108 106.194 218.111L118.314 218.171V226.189Z" fill="#2F2E41"/>
<path d="M116.358 98.625L101.084 155.866L106.675 210.735L119.054 211.078L116.359 161.534L131.802 136.809L135.151 211.415L146.38 210.618L152.627 146.472C154.749 141.463 156.305 136.231 157.266 130.875C158.021 126.67 158.388 122.404 158.363 118.132C158.35 115.255 158.13 112.384 157.704 109.539C157.552 108.479 157.346 107.428 157.087 106.389L152.533 101.752L116.358 98.625Z" fill="white"/>
<path d="M136.595 108.199C134.027 108.199 131.616 108.116 129.431 107.952C127.198 107.798 124.978 107.505 122.781 107.073C120.912 106.723 119.091 106.147 117.358 105.359C115.963 104.754 114.751 103.793 113.84 102.571L113.736 102.419L117.911 75.1348L122.413 44.4569C122.71 42.4268 123.739 40.577 125.305 39.2596C126.872 37.9422 128.866 37.2492 130.908 37.3126L145.008 37.7464C146.065 37.779 147.106 38.0244 148.067 38.4681C149.028 38.9118 149.89 39.5448 150.603 40.3295C151.316 41.1142 151.865 42.0346 152.218 43.0363C152.57 44.038 152.718 45.1004 152.654 46.1607L150.803 76.6701L157.63 106.764L157.147 106.832C156.952 106.858 156.203 106.957 155.029 107.09C153.495 107.263 151.929 107.419 150.373 107.554C148.173 107.744 146.02 107.894 143.974 107.999C141.379 108.132 138.892 108.196 136.595 108.199Z" fill="black"/>
<path d="M128.771 31.8911C128.767 31.8911 128.764 31.8911 128.76 31.8911C128.464 31.8909 128.171 31.8322 127.898 31.7184C127.625 31.6045 127.377 31.4377 127.168 31.2276C126.959 31.0174 126.793 30.7679 126.68 30.4934C126.567 30.2189 126.509 29.9247 126.509 29.6277V17.0042C126.507 14.7426 126.957 12.5036 127.834 10.4204C129.551 6.35508 132.764 3.1119 136.803 1.36675C139.358 0.266388 142.144 -0.180554 144.913 0.0659432C147.682 0.31244 150.347 1.24468 152.669 2.77918C154.991 4.31369 156.898 6.40255 158.219 8.85872C159.54 11.3149 160.234 14.0617 160.238 16.8532V29.4959C160.239 29.8001 160.178 30.1013 160.06 30.3815C159.828 30.9281 159.396 31.3638 158.852 31.5974C158.573 31.717 158.273 31.7791 157.969 31.7799L128.769 31.8911H128.771Z" fill="black"/>
<path d="M150.988 12.6747C152.165 14.832 152.678 17.2909 152.463 19.7409C152.249 22.1909 151.316 24.5221 149.783 26.44C148.249 28.358 146.185 29.7767 143.849 30.5169C141.513 31.2571 139.012 31.2857 136.66 30.599C135.102 30.1496 133.649 29.3944 132.385 28.3771C131.12 27.3597 130.069 26.1005 129.293 24.6724C128.12 22.5161 127.608 20.0591 127.823 17.6113C128.039 15.1636 128.971 12.8346 130.502 10.918C132.034 9.00145 134.096 7.58312 136.429 6.84186C138.762 6.1006 141.261 6.0696 143.612 6.75276C145.171 7.2005 146.625 7.95455 147.891 8.97119C149.158 9.98783 150.21 11.2468 150.988 12.6752V12.6747Z" fill="#FFB6B6"/>
<path d="M122.522 18.0315C122.521 16.2428 122.877 14.4721 123.571 12.8245C124.928 9.60987 127.469 7.04549 130.663 5.66604C132.302 4.96089 134.066 4.59397 135.849 4.58711L138.365 4.57444C138.393 4.57428 138.421 4.5742 138.449 4.57422C140.192 4.5753 141.917 4.92096 143.526 5.59147C145.135 6.26198 146.597 7.24421 147.828 8.48208C149.059 9.71994 150.036 11.1892 150.701 12.806C151.367 14.4227 151.709 16.1553 151.708 17.9049V18.1577L146.385 18.1793L144.571 13.0877L144.208 18.1891L141.458 18.2013L140.543 15.6325L140.36 18.2046L122.525 18.2848L122.522 18.0315Z" fill="black"/>
<path d="M101.094 44.5873C100.275 44.7885 99.5092 45.1654 98.849 45.6921C98.3331 46.102 97.892 46.5987 97.5453 47.1601C96.8615 48.2711 96.5602 49.5769 96.6878 50.8767C96.7522 51.5333 96.9295 52.1737 97.212 52.7694C97.5601 53.5118 98.0611 54.1716 98.6819 54.7053C99.3027 55.239 100.029 55.6343 100.813 55.8653C101.598 56.0962 102.422 56.1575 103.231 56.0451C104.041 55.9327 104.817 55.6491 105.509 55.2131C105.56 55.18 105.611 55.1465 105.661 55.1124C105.711 55.0784 105.76 55.0436 105.808 55.0082C105.857 54.9726 105.905 54.9365 105.952 54.8999C105.998 54.8633 106.045 54.8261 106.091 54.7884L135.462 65.2854C136.365 65.6082 137.349 65.6274 138.264 65.3403C139.18 65.0531 139.978 64.4751 140.538 63.6932L147.501 54.0119L139.083 48.3192L134.665 53.3589L107.786 47.9896C107.757 47.9197 107.726 47.8501 107.695 47.7808C107.663 47.7116 107.631 47.6427 107.596 47.574C107.562 47.5056 107.526 47.4375 107.489 47.3698C107.452 47.302 107.413 47.2348 107.372 47.1682C106.731 46.1277 105.778 45.3177 104.65 44.8541C103.523 44.3905 102.278 44.2971 101.094 44.5873Z" fill="#FFB6B6"/>
<path d="M135.139 50.1807C136.017 49.0796 137.246 47.65 138.494 46.2321C139.742 44.8141 141.008 43.4088 141.964 42.3575C142.919 41.3062 143.562 40.6094 143.562 40.6094C144.444 39.2705 145.76 38.2793 147.287 37.8043C148.814 37.3294 150.458 37.3999 151.939 38.0038C153.42 38.6078 154.647 39.708 155.412 41.1176C156.177 42.5272 156.433 44.1592 156.135 45.7365C155.965 46.6445 155.614 47.5086 155.103 48.2768C155.103 48.2768 154.145 49.5359 152.698 51.4153C151.252 53.2947 149.317 55.7965 147.365 58.2837C145.413 60.7709 143.442 63.2453 141.922 65.0718C140.402 66.8982 139.333 68.0782 139.182 67.9771L133.881 52.1533C133.73 52.0522 134.26 51.2817 135.139 50.1807Z" fill="black"/>
<path d="M138.285 31.4931C138.202 31.9012 138.234 32.3246 138.379 32.7151C138.451 32.915 138.551 33.1037 138.676 33.2757C138.783 33.4222 138.906 33.5556 139.044 33.673C139.453 34.0196 139.971 34.2087 140.505 34.2064C140.539 34.2061 140.572 34.2051 140.605 34.2036C140.639 34.202 140.672 34.1997 140.705 34.1965C140.739 34.1937 140.772 34.19 140.806 34.1853C140.839 34.1806 140.872 34.1753 140.906 34.1693L142.795 33.8245L145.397 28.2423V33.3554L153.986 31.8027V10.1045L139.587 10.1739L139.943 10.5891C141.125 11.9821 141.901 13.6754 142.186 15.4827C142.465 17.3133 142.43 19.1783 142.082 20.997C141.744 22.8372 141.23 24.6406 140.549 26.3823C139.953 27.9252 139.269 29.4324 138.501 30.8964C138.402 31.0842 138.329 31.2851 138.285 31.4931Z" fill="black"/>
</g>
<defs>
<clipPath id="clip0_789_976">
<rect width="217" height="227" fill="white"/>
</clipPath>
</defs>
</svg>
