<svg width="40" height="38" viewBox="0 0 40 38" fill="none" xmlns="http://www.w3.org/2000/svg">
<path d="M28.3823 15.6433C27.4501 14.7531 26.1859 14.253 24.8676 14.253C23.5494 14.253 22.2852 14.7531 21.353 15.6433C20.4209 16.5336 19.8972 17.741 19.8972 19C19.8972 20.259 20.4209 21.4664 21.353 22.3567C21.8146 22.7975 22.3625 23.1471 22.9655 23.3857C23.5686 23.6243 24.2149 23.747 24.8676 23.747C25.5204 23.747 26.1667 23.6243 26.7698 23.3857C27.3728 23.1471 27.9207 22.7975 28.3823 22.3567C28.8438 21.9159 29.2099 21.3926 29.4597 20.8166C29.7095 20.2407 29.8381 19.6234 29.8381 19C29.8381 18.3766 29.7095 17.7593 29.4597 17.1834C29.2099 16.6074 28.8438 16.0841 28.3823 15.6433ZM11.6049 9.5V28.5H38.1304V9.5H11.6049ZM34.8147 22.1667C33.9361 22.1667 33.0905 22.4992 32.4771 23.1008C31.8472 23.6867 31.499 24.4942 31.499 25.3333H18.2363C18.2363 24.4942 17.8881 23.6867 17.2581 23.1008C16.6447 22.4992 15.7992 22.1667 14.9206 22.1667V15.8333C15.7992 15.8333 16.6447 15.5008 17.2581 14.8992C17.8881 14.3133 18.2363 13.5058 18.2363 12.6667H31.499C31.499 13.5058 31.8472 14.3133 32.4771 14.8992C33.0905 15.5008 33.9361 15.8333 34.8147 15.8333V22.1667ZM8.28922 12.6667H4.97353C4.06172 12.6667 3.31569 11.9542 3.31569 11.0833C3.31569 10.2125 4.06172 9.5 4.97353 9.5H8.28922V12.6667ZM8.28922 20.5833H3.31569C2.40387 20.5833 1.65784 19.8708 1.65784 19C1.65784 18.1292 2.40387 17.4167 3.31569 17.4167H8.28922V20.5833ZM8.28922 28.5H1.65784C0.742714 28.5 0 27.7875 0 26.9167C0 26.0458 0.742714 25.3333 1.65784 25.3333H8.28922V28.5Z" fill="white"/>
</svg>
