<svg width="16" height="16" viewBox="0 0 16 16" fill="none" xmlns="http://www.w3.org/2000/svg">
<path d="M10.3333 8.00016C12 8.00016 13.3333 9.3335 13.3333 11.0002C13.3333 11.5868 13.1666 12.1402 12.8733 12.6002L14.9266 14.6668L14 15.5935L11.92 13.5468C11.46 13.8335 10.9133 14.0002 10.3333 14.0002C8.66665 14.0002 7.33331 12.6668 7.33331 11.0002C7.33331 9.3335 8.66665 8.00016 10.3333 8.00016ZM10.3333 9.3335C9.89129 9.3335 9.46736 9.50909 9.1548 9.82165C8.84224 10.1342 8.66665 10.5581 8.66665 11.0002C8.66665 11.4422 8.84224 11.8661 9.1548 12.1787C9.46736 12.4912 9.89129 12.6668 10.3333 12.6668C10.7753 12.6668 11.1993 12.4912 11.5118 12.1787C11.8244 11.8661 12 11.4422 12 11.0002C12 10.5581 11.8244 10.1342 11.5118 9.82165C11.1993 9.50909 10.7753 9.3335 10.3333 9.3335ZM9.33331 4.0735L5.33331 2.66683V10.5935L5.99998 10.8268V11.0002C5.99998 11.4268 6.05998 11.8402 6.17331 12.2268L5.33331 11.9335L1.77331 13.3135L1.66665 13.3335C1.57824 13.3335 1.49346 13.2984 1.43094 13.2359C1.36843 13.1734 1.33331 13.0886 1.33331 13.0002V2.92016C1.33331 2.76683 1.43331 2.64683 1.57331 2.60016L5.33331 1.3335L9.33331 2.7335L12.8933 1.3335H13C13.0884 1.3335 13.1732 1.36862 13.2357 1.43113C13.2982 1.49364 13.3333 1.57842 13.3333 1.66683V7.8735C12.5272 7.09807 11.4518 6.66551 10.3333 6.66683C9.99998 6.66683 9.66665 6.70683 9.33331 6.78016V4.0735Z" fill="white"/>
</svg>
