<svg width="34" height="34" viewBox="0 0 34 34" fill="none" xmlns="http://www.w3.org/2000/svg">
<path d="M28.3333 24.7918C28.879 24.7921 29.4037 25.0023 29.7986 25.3789C30.1936 25.7555 30.4285 26.2696 30.4548 26.8147C30.481 27.3598 30.2965 27.8941 29.9395 28.3069C29.5825 28.7196 29.0804 28.9793 28.5373 29.0319L28.3333 29.0418H5.6666C5.12087 29.0416 4.59617 28.8313 4.20121 28.4547C3.80626 28.0782 3.57133 27.564 3.5451 27.0189C3.51888 26.4739 3.70337 25.9396 4.06034 25.5268C4.41732 25.114 4.91942 24.8544 5.4626 24.8017L5.6666 24.7918H28.3333ZM28.3333 14.8752C28.8968 14.8752 29.4373 15.099 29.8359 15.4976C30.2344 15.8961 30.4583 16.4366 30.4583 17.0002C30.4583 17.5637 30.2344 18.1042 29.8359 18.5028C29.4373 18.9013 28.8968 19.1252 28.3333 19.1252H5.6666C5.10301 19.1252 4.56251 18.9013 4.16399 18.5028C3.76548 18.1042 3.5416 17.5637 3.5416 17.0002C3.5416 16.4366 3.76548 15.8961 4.16399 15.4976C4.56251 15.099 5.10301 14.8752 5.6666 14.8752H28.3333ZM28.3333 4.9585C28.8968 4.9585 29.4373 5.18238 29.8359 5.58089C30.2344 5.97941 30.4583 6.51991 30.4583 7.0835C30.4583 7.64708 30.2344 8.18758 29.8359 8.5861C29.4373 8.98461 28.8968 9.2085 28.3333 9.2085H5.6666C5.10301 9.2085 4.56251 8.98461 4.16399 8.5861C3.76548 8.18758 3.5416 7.64708 3.5416 7.0835C3.5416 6.51991 3.76548 5.97941 4.16399 5.58089C4.56251 5.18238 5.10301 4.9585 5.6666 4.9585H28.3333Z" fill="white"/>
</svg>
