<svg width="22" height="22" viewBox="0 0 22 22" fill="none" xmlns="http://www.w3.org/2000/svg">
<path d="M17.8088 16.4183C17.9003 16.5095 17.9729 16.6179 18.0224 16.7372C18.072 16.8565 18.0975 16.9844 18.0975 17.1136C18.0975 17.2427 18.072 17.3707 18.0224 17.49C17.9729 17.6093 17.9003 17.7176 17.8088 17.8088C17.6236 17.9916 17.3738 18.0941 17.1135 18.0941C16.8533 18.0941 16.6035 17.9916 16.4183 17.8088L11.2245 12.615L6.03071 17.8088C5.84549 17.9916 5.59572 18.0941 5.33548 18.0941C5.07523 18.0941 4.82546 17.9916 4.64024 17.8088C4.54874 17.7176 4.47614 17.6093 4.4266 17.49C4.37706 17.3707 4.35156 17.2427 4.35156 17.1136C4.35156 16.9844 4.37706 16.8565 4.4266 16.7372C4.47614 16.6179 4.54874 16.5095 4.64024 16.4183L9.83404 11.2245L4.64024 6.03074C4.45586 5.84635 4.35227 5.59627 4.35227 5.3355C4.35227 5.20639 4.3777 5.07853 4.42711 4.95925C4.47652 4.83996 4.54895 4.73157 4.64024 4.64027C4.73154 4.54897 4.83993 4.47655 4.95922 4.42714C5.07851 4.37773 5.20636 4.35229 5.33548 4.35229C5.59624 4.35229 5.84632 4.45588 6.03071 4.64027L11.2245 9.83407L16.4183 4.64027C16.6027 4.45588 16.8528 4.35229 17.1135 4.35229C17.3743 4.35229 17.6244 4.45588 17.8088 4.64027C17.9932 4.82466 18.0967 5.07474 18.0967 5.3355C18.0967 5.59627 17.9932 5.84635 17.8088 6.03074L12.615 11.2245L17.8088 16.4183Z" fill="white"/>
</svg>
