<svg width="56" height="58" viewBox="0 0 56 58" fill="none" xmlns="http://www.w3.org/2000/svg">
<path d="M28.0215 3.5C22.9178 3.50579 18.0249 5.53577 14.4161 9.14459C10.8073 12.7534 8.77727 17.6464 8.77148 22.75C8.77148 39.2219 26.2715 51.6688 27.0152 52.1938C27.3133 52.3922 27.6634 52.4981 28.0215 52.4981C28.3796 52.4981 28.7297 52.3922 29.0277 52.1938C29.7715 51.6688 47.2715 39.2219 47.2715 22.75C47.2657 17.6464 45.2357 12.7534 41.6269 9.14459C38.0181 5.53577 33.1251 3.50579 28.0215 3.5ZM28.0215 15.75C29.406 15.75 30.7593 16.1605 31.9105 16.9297C33.0616 17.6989 33.9588 18.7921 34.4886 20.0712C35.0185 21.3503 35.1571 22.7578 34.887 24.1156C34.6169 25.4735 33.9502 26.7208 32.9712 27.6997C31.9923 28.6787 30.745 29.3454 29.3871 29.6155C28.0293 29.8856 26.6218 29.747 25.3427 29.2172C24.0636 28.6873 22.9704 27.7901 22.2012 26.639C21.432 25.4878 21.0215 24.1345 21.0215 22.75C21.0215 20.8935 21.759 19.113 23.0717 17.8003C24.3845 16.4875 26.165 15.75 28.0215 15.75Z" fill="#1870E2"/>
<ellipse cx="28" cy="57" rx="4" ry="1" fill="#1870E2"/>
</svg>
