<svg width="1362" height="314" viewBox="0 0 1362 314" fill="none" xmlns="http://www.w3.org/2000/svg">
<mask id="mask0_704_354" style="mask-type:alpha" maskUnits="userSpaceOnUse" x="0" y="0" width="1362" height="314">
<rect width="1362" height="314" fill="#D9D9D9"/>
</mask>
<g mask="url(#mask0_704_354)">
<path d="M109.4 299.8C88.8667 299.8 70.4667 296.467 54.2 289.8C37.9333 283.133 24.8667 273.267 15 260.2C5.4 247.133 0.333335 231.4 -0.199999 213H72.6C73.6667 223.4 77.2667 231.4 83.4 237C89.5333 242.333 97.5333 245 107.4 245C117.533 245 125.533 242.733 131.4 238.2C137.267 233.4 140.2 226.867 140.2 218.6C140.2 211.667 137.8 205.933 133 201.4C128.467 196.867 122.733 193.133 115.8 190.2C109.133 187.267 99.5333 183.933 87 180.2C68.8667 174.6 54.0667 169 42.6 163.4C31.1333 157.8 21.2667 149.533 13 138.6C4.73333 127.667 0.600001 113.4 0.600001 95.8C0.600001 69.6667 10.0667 49.2667 29 34.6C47.9333 19.6667 72.6 12.2 103 12.2C133.933 12.2 158.867 19.6667 177.8 34.6C196.733 49.2667 206.867 69.8 208.2 96.2H134.2C133.667 87.1333 130.333 80.0667 124.2 75C118.067 69.6667 110.2 67 100.6 67C92.3333 67 85.6667 69.2667 80.6 73.8C75.5333 78.0666 73 84.3333 73 92.6C73 101.667 77.2667 108.733 85.8 113.8C94.3333 118.867 107.667 124.333 125.8 130.2C143.933 136.333 158.6 142.2 169.8 147.8C181.267 153.4 191.133 161.533 199.4 172.2C207.667 182.867 211.8 196.6 211.8 213.4C211.8 229.4 207.667 243.933 199.4 257C191.4 270.067 179.667 280.467 164.2 288.2C148.733 295.933 130.467 299.8 109.4 299.8ZM436.694 297L342.294 173V297H273.894V16.2H342.294V139.4L435.894 16.2H516.294L407.494 153.8L520.294 297H436.694ZM641.2 16.2V297H572.8V16.2H641.2ZM924.769 106.6C924.769 122.867 921.035 137.8 913.569 151.4C906.102 164.733 894.635 175.533 879.169 183.8C863.702 192.067 844.502 196.2 821.569 196.2H779.169V297H710.769V16.2H821.569C843.969 16.2 862.902 20.0667 878.369 27.8C893.835 35.5333 905.435 46.2 913.169 59.8C920.902 73.4 924.769 89 924.769 106.6ZM816.369 141.8C829.435 141.8 839.169 138.733 845.569 132.6C851.969 126.467 855.169 117.8 855.169 106.6C855.169 95.4 851.969 86.7333 845.569 80.6C839.169 74.4667 829.435 71.4 816.369 71.4H779.169V141.8H816.369Z" fill="#F6B60D"/>
<path fill-rule="evenodd" clip-rule="evenodd" d="M1204.73 0.43554L1361.7 157.308L1204.73 314.18L1165.49 274.962L1283.22 157.308L1165.49 39.6536L1204.73 0.43554Z" fill="#F6B60D"/>
<path fill-rule="evenodd" clip-rule="evenodd" d="M1106.7 0.43554L1263.57 157.308L1106.7 314.18L1067.48 274.962L1185.14 157.308L1067.48 39.6536L1106.7 0.43554Z" fill="#F6B60D"/>
<path fill-rule="evenodd" clip-rule="evenodd" d="M1008.6 0.43554L1165.57 157.308L1008.6 314.18L969.353 274.962L1087.08 157.308L969.353 39.6536L1008.6 0.43554Z" fill="#F6B60D"/>
</g>
</svg>
