<svg width="223" height="247" viewBox="0 0 223 247" fill="none" xmlns="http://www.w3.org/2000/svg">
<g clip-path="url(#clip0_789_1006)">
<path d="M178.318 97.9648V109.536C176.874 112.324 175.457 115.948 174.07 120.487C174.07 120.487 176.195 127.568 178.318 136.125V160.598H125.282L121.598 165.813H111.5V188.737H127.964V241.5H131.384V188.737H141.052V241.5H144.473V188.737H177.99V241.5H181.411V188.737H194.407V241.5H197.828L197.691 188.737H201.286V97.9648H178.318Z" fill="#CCCCCC"/>
<path d="M100.425 69.5826C98.1618 66.9429 94.9622 65.9689 93.2793 67.407C91.5963 68.8451 92.0674 72.1503 94.3322 74.7906C95.2225 75.8577 96.3558 76.6966 97.6374 77.2369L107.37 88.3006L112.475 83.6315L102.338 73.2203C102.001 71.8727 101.345 70.6253 100.425 69.5826Z" fill="#FFB6B6"/>
<path d="M173.479 83.0744C173.479 83.0744 175.607 92.7996 167.158 95.9007C158.709 99.0017 136.813 110.909 135.193 110.363C133.572 109.817 128.269 112.481 122.011 106.798C115.753 101.116 100.634 83.9832 100.634 83.9832L106.853 75.5532L130.268 91.6973C130.268 91.6973 130.768 91.5489 132.988 91.3193C135.208 91.0897 133.472 92.4871 136.944 89.6922C140.415 86.8973 162.575 76.881 162.575 76.881C162.575 76.881 169.077 73.665 173.479 83.0744Z" fill="black"/>
<path d="M118.228 218.738L121.67 229.808L112.108 236.298L105.224 230.19C105.224 230.19 107.901 220.646 106.754 218.356L118.228 218.738Z" fill="#FFB6B6"/>
<path d="M166.802 61.8423L172.287 73.9167L156.241 83.8721L155.328 69.4771L166.802 61.8423Z" fill="#FFB6B6"/>
<path opacity="0.1" d="M166.802 61.8423L172.287 73.9167L156.241 83.8721L155.328 69.4771L166.802 61.8423Z" fill="black"/>
<path d="M160.496 72.6067C166.931 72.6067 172.148 67.4 172.148 60.9772C172.148 54.5544 166.931 49.3477 160.496 49.3477C154.061 49.3477 148.844 54.5544 148.844 60.9772C148.844 67.4 154.061 72.6067 160.496 72.6067Z" fill="#FFB6B6"/>
<path d="M156.093 81.3107L172.539 70.2402L169.862 163.767C169.862 163.767 156.284 140.29 145.957 139.145C145.957 139.145 147.104 136.472 147.869 134.945C148.634 133.418 149.782 125.784 149.782 125.784L155.137 84.5555L156.093 81.3107Z" fill="#FFC700"/>
<path d="M169.289 178.082L154.755 126.929C154.755 126.929 157.05 85.7008 172.54 70.2402L176.174 75.7755C176.174 75.7755 179.767 76.3075 179.118 78.7137C178.469 81.1199 193.385 169.684 193.385 169.684H177.925C177.925 169.684 176.556 178.082 169.289 178.082Z" fill="black"/>
<path d="M156.093 81.3111V79.7842C156.093 79.7842 149.017 80.3568 148.635 84.5559C148.252 88.7551 145.192 105.17 148.252 115.095L144.427 121.203L141.75 135.709L150.165 138L154.754 102.773C154.754 102.773 157.814 84.1742 156.093 81.3111Z" fill="black"/>
<path d="M169.671 154.033C169.671 154.033 176.173 172.738 162.404 173.12C148.634 173.501 127.184 173.501 127.184 173.501L116.506 179.228L119.566 220.837L98.1474 221.219C98.1474 221.219 91.2628 170.066 97.3824 163.958C103.502 157.85 121.096 151.36 121.096 151.36L141.367 141.053L147.068 134.146L169.671 154.033Z" fill="white"/>
<path d="M170.451 67.7589C171.264 67.4708 178.869 58.574 172.539 52.6801C172.539 52.6801 170.073 45.48 160.236 46.2352C150.399 46.9904 147.751 52.3602 147.751 55.1506C147.751 57.9411 150.356 61.0784 150.356 61.0784C150.356 61.0784 148.508 53.4098 152.669 53.7874C156.831 54.165 155.696 55.6754 158.723 54.9202C161.749 54.165 164.776 55.2978 164.776 55.2978L167.803 56.4306V61.0377C167.803 61.0377 169.123 59.9807 169.219 61.0377C169.316 62.0948 170.451 67.7589 170.451 67.7589Z" fill="#2F2E41"/>
<path d="M104.65 162.049L104.267 173.883L89.3506 171.211C89.3506 171.211 95.7554 160.69 94.8479 157.743L104.65 162.049Z" fill="#FFB6B6"/>
<path d="M103.119 171.211C103.119 171.211 105.797 171.211 105.797 172.738C105.797 174.265 110.004 186.099 101.972 186.481C93.94 186.863 94.3225 185.336 94.3225 185.336C94.3225 185.336 71.7563 195.643 63.7242 180.373C63.7242 180.373 61.8118 176.556 66.4016 175.792C70.9913 175.029 89.3503 168.637 89.3503 168.637C89.3503 168.637 100.06 172.738 103.119 171.211Z" fill="black"/>
<path d="M118.61 229.808C118.61 229.808 121.288 226.571 121.67 226.853C122.053 227.136 130.467 236.68 124.73 239.352C118.993 242.024 115.933 243.169 115.933 243.169L114.403 240.879C114.403 240.879 102.929 251.949 85.3349 244.314C85.3349 244.314 83.805 240.879 87.2473 240.115C90.6896 239.352 105.224 227.719 105.224 227.719C105.224 227.719 111.343 232.099 114.403 231.335C117.463 230.572 118.61 229.808 118.61 229.808Z" fill="black"/>
<path d="M145.957 137.999C145.957 137.999 110.195 119.867 107.136 119.867C104.076 119.867 98.2272 121.123 96.9442 126.985C95.6613 132.846 88.0117 161.095 88.0117 161.095L106.753 165.676L114.02 145.443L125.877 156.132L145.957 144.181V137.999Z" fill="white"/>
<path d="M129.119 130.995C125.674 131.5 123.143 133.682 123.465 135.87C123.787 138.058 126.84 139.422 130.286 138.917C131.665 138.734 132.98 138.224 134.121 137.429L148.688 135.108L147.451 128.308L133.222 131.319C131.9 130.885 130.493 130.774 129.119 130.995Z" fill="#FFB6B6"/>
<path d="M179.495 76.4949C179.495 76.4949 188.874 79.881 186.999 88.6691C185.124 97.4573 183.547 122.294 182.22 123.372C180.894 124.45 180.326 130.347 172.173 132.603C164.02 134.859 140.623 144.844 140.623 144.844L137.605 128.75L163.772 117.582C163.772 117.582 163.913 117.08 164.902 115.083C165.89 113.086 166.149 115.297 165.631 110.875C165.112 106.454 168.432 82.4019 168.432 82.4019C168.432 82.4019 169.172 75.1966 179.495 76.4949Z" fill="black"/>
<path d="M94.8016 5.31996C94.7543 5.36578 94.7108 5.41399 94.664 5.4602C87.3698 -1.76409 75.6225 -1.82765 68.2502 5.31723C60.8517 12.4903 60.6017 24.2657 67.6891 31.7451L67.6845 31.7496L67.861 31.931L93.9604 58.7518L121.015 32.5265L120.939 32.4492C120.985 32.406 121.032 32.3659 121.077 32.3221C128.548 25.0802 128.722 13.1649 121.467 5.70841C114.211 -1.74803 102.272 -1.92193 94.8016 5.31996Z" fill="#FFC700"/>
</g>
<defs>
<clipPath id="clip0_789_1006">
<rect width="223" height="247" fill="white"/>
</clipPath>
</defs>
</svg>
