<svg width="833" height="833" viewBox="0 0 833 833" fill="none" xmlns="http://www.w3.org/2000/svg">
<path opacity="0.5" d="M772.074 697.088C753.881 697.088 447.87 699.104 428.628 698.487C427.245 698.487 426.512 696.421 427.878 695.738C440.007 689.741 453.768 690.94 466.363 686.692C473.776 684.193 478.325 679.345 483.473 673.797C487.731 668.94 493.239 665.344 499.4 663.401C505.027 661.705 511.002 661.515 516.726 662.851C522.94 664.334 528.388 667.849 534.252 670.132C548.946 675.68 563.241 670.398 573.736 659.519C582.4 650.556 590.896 642.093 602.675 637.278C612.521 633.23 623.467 632.38 633.329 636.845C644.558 641.927 652.255 652.156 662.801 658.303C675.296 665.617 690.24 663.884 704.051 666.084C717.862 668.283 728.441 679.928 740.553 686.609C744.685 688.908 748.883 690.824 753.748 690.707C756.463 690.707 759.112 689.907 761.795 689.574C765.96 689.058 769.908 689.174 772.723 692.656C773.407 693.489 773.257 697.088 772.074 697.088Z" fill="#EBEBEB"/>
<path d="M438.857 112.855C420.681 112.855 114.67 114.871 95.4276 114.254C94.0449 114.254 93.3118 112.188 94.6779 111.505C106.806 105.508 120.551 106.707 133.163 102.459C140.576 99.96 145.124 95.112 150.256 89.5642C154.517 84.711 160.025 81.116 166.183 79.1684C171.816 77.4723 177.796 77.2827 183.526 78.6186C189.74 80.1013 195.188 83.6166 201.052 85.899C215.746 91.4468 230.04 86.1656 240.536 75.2866C249.183 66.3235 257.696 57.8602 269.475 53.0455C279.321 48.9971 290.266 48.1474 300.129 52.6123C311.341 57.6936 319.055 67.9229 329.584 74.0704C342.096 81.3841 357.04 79.6515 370.834 81.8506C384.629 84.0497 395.241 95.6951 407.353 102.376C411.484 104.675 415.683 106.591 420.548 106.474C423.246 106.474 425.912 105.674 428.578 105.341C432.759 104.825 436.708 104.941 439.507 108.423C440.19 109.256 440.056 112.855 438.857 112.855Z" fill="#EBEBEB"/>
<path opacity="0.5" d="M311.408 576.02C298.08 576.02 74.703 577.502 60.6586 577.052C59.659 577.052 59.1092 575.536 60.1255 575.037C68.9719 570.655 79.0179 571.538 88.2142 568.373C93.6287 566.54 96.9441 563.008 100.693 558.943C103.818 555.403 107.85 552.782 112.355 551.363C116.468 550.124 120.833 549.987 125.016 550.963C129.548 552.046 133.479 554.645 137.811 556.277C148.54 560.326 158.969 556.477 166.633 548.531C172.964 541.983 179.178 535.802 187.758 532.287C191.268 530.701 195.068 529.854 198.92 529.799C202.772 529.745 206.595 530.484 210.149 531.971C218.345 535.686 223.96 543.149 231.657 547.648C240.787 552.979 251.649 551.713 261.778 553.329C271.907 554.945 279.588 563.425 288.434 568.323C291.309 570.182 294.641 571.214 298.064 571.305C300.046 571.305 301.979 570.722 303.928 570.488C306.977 570.105 309.859 570.189 311.908 572.738C312.375 573.404 312.275 576.02 311.408 576.02Z" fill="#EBEBEB"/>
<path opacity="0.5" d="M772.64 229.042C759.312 229.042 535.935 230.525 521.907 230.075C520.891 230.075 520.358 228.559 521.358 228.059C530.204 223.677 540.25 224.56 549.446 221.395C554.861 219.562 558.176 216.03 561.941 211.965C565.063 208.42 569.096 205.798 573.603 204.385C577.716 203.147 582.082 203.009 586.265 203.985C590.796 205.068 594.745 207.667 599.06 209.3C609.789 213.348 620.218 209.5 627.882 201.553C634.212 195.005 640.427 188.825 649.006 185.309C652.517 183.723 656.317 182.876 660.169 182.822C664.021 182.767 667.843 183.506 671.397 184.993C679.594 188.708 685.209 196.172 692.906 200.67C702.035 206.001 712.898 204.735 723.027 206.351C733.156 207.967 740.836 216.447 749.683 221.345C752.558 223.204 755.889 224.236 759.312 224.327C761.295 224.327 763.227 223.744 765.193 223.511C768.225 223.127 771.124 223.211 773.157 225.76C773.607 226.426 773.507 229.042 772.64 229.042Z" fill="#EBEBEB"/>
<path d="M480.557 769.692C467.229 769.692 243.852 771.175 229.824 770.725C228.808 770.725 228.275 769.209 229.274 768.709C238.121 764.328 248.167 765.21 257.363 762.045C262.778 760.212 266.093 756.681 269.858 752.616C272.98 749.07 277.013 746.449 281.52 745.035C285.633 743.797 289.999 743.659 294.182 744.635C298.713 745.718 302.662 748.317 306.977 749.95C317.706 753.998 328.135 750.15 335.799 742.203C342.129 735.656 348.344 729.491 356.923 725.96C360.435 724.377 364.235 723.532 368.086 723.478C371.938 723.423 375.759 724.16 379.314 725.643C387.511 729.358 393.126 736.822 400.823 741.32C409.952 746.651 420.815 745.385 430.944 747.001C441.073 748.617 448.753 757.097 457.6 761.995C460.475 763.855 463.807 764.886 467.229 764.977C469.212 764.977 471.144 764.394 473.11 764.161C476.142 763.778 479.041 763.861 481.09 766.41C481.474 766.993 481.474 769.692 480.557 769.692Z" fill="#EBEBEB"/>
<path opacity="0.5" d="M578.101 301.063C564.773 301.063 341.413 302.546 327.368 302.096C326.352 302.096 325.819 300.58 326.818 300.08C335.665 295.698 345.711 296.581 354.907 293.416C360.322 291.583 363.637 288.052 367.402 283.987C370.525 280.443 374.558 277.822 379.064 276.406C383.171 275.168 387.532 275.03 391.709 276.006C396.257 277.089 400.189 279.688 404.504 281.321C415.25 285.369 425.679 281.521 433.342 273.574C439.657 267.027 445.871 260.846 454.467 257.331C457.976 255.747 461.773 254.902 465.622 254.848C469.471 254.794 473.29 255.531 476.842 257.014C485.038 260.729 490.67 268.193 498.366 272.691C507.48 278.022 518.358 276.756 528.471 278.372C538.584 279.988 546.297 288.468 555.127 293.366C558.007 295.228 561.345 296.26 564.773 296.348C566.739 296.348 568.688 295.765 570.638 295.532C573.67 295.149 576.568 295.232 578.618 297.781C579.101 298.447 578.984 301.063 578.101 301.063Z" fill="#EBEBEB"/>
<path d="M319.305 270.392C319.305 270.392 319.788 266.027 320.854 257.064C321.87 248.734 324.586 226.959 329.551 218.129C342.612 194.922 375.832 189.557 398.19 169.699C410.418 158.82 410.252 153.489 414.083 154.055C417.915 154.621 414.95 182.56 393.458 196.855C393.458 196.855 404.97 200.57 404.97 204.418C404.97 208.267 395.274 211.499 388.544 211.249C388.544 211.249 399.772 221.895 397.99 226.743C396.207 231.591 383.412 229.825 378.164 227.726C378.164 227.726 384.562 235.356 382.579 238.821C379.531 244.169 367.435 238.221 367.435 238.221C367.435 238.221 371.384 243.503 369.251 245.652C366.336 248.567 356.523 244.569 356.523 244.569C356.523 244.569 354.857 255.614 342.062 251.233C342.062 251.233 339.863 259.563 330.4 255.265C328.111 257.302 326.321 259.839 325.169 262.678C323.82 266.66 320.971 270.708 319.305 270.392Z" fill="#EBEBEB"/>
<path d="M323.304 259.33C323.71 258.434 324.334 257.655 325.12 257.064C327.369 255.165 329.651 252.549 328.452 248.734L328.202 249.167C332 249.384 335.016 246.668 334.049 241.453C333.796 240.128 333.422 238.829 332.933 237.572L332.317 238.338C343.279 245.902 345.262 240.004 338.981 227.909L338.164 228.992C349.393 237.738 354.225 237.005 347.961 219.496L347.144 220.529C347.997 221.019 348.926 221.363 349.893 221.545C355.907 222.728 357.74 216.18 358.69 210.016C358.917 207.977 359.57 206.009 360.606 204.238C361.642 202.468 363.038 200.934 364.704 199.737C367.801 197.826 371.332 196.731 374.966 196.555C376.751 196.405 378.546 196.405 380.331 196.555C378.555 196.239 376.752 196.105 374.95 196.155C367.436 196.255 359.656 199.154 357.707 209.633C357.04 212.965 356.524 216.297 354.608 218.546C352.692 220.795 349.876 220.295 347.677 219.079L346.178 218.246L346.861 220.112C347.561 222.061 350.809 231.591 348.91 232.74C346.278 233.39 341.147 229.408 338.798 227.642L336.498 225.81C337.915 228.675 342.213 236.272 341.213 239.571C339.88 241.77 334.333 238.321 332.7 237.272L331.534 236.572C332.6 239.221 334.083 242.436 333.2 245.435C332.785 246.483 332.036 247.365 331.069 247.943C330.102 248.521 328.971 248.764 327.852 248.634C329.318 252.416 327.219 254.815 325.02 256.964C324.273 257.619 323.701 258.449 323.354 259.38L323.304 259.33Z" fill="#C7C7C7"/>
<path d="M358.306 221.312C358.965 223.072 359.521 224.868 359.972 226.693C360.422 228.23 360.497 229.852 360.189 231.424C358.689 234.756 354.124 233.523 351.692 232.724L351.026 232.474C351.439 234.195 351.679 235.953 351.742 237.722C351.942 244.052 345.528 240.337 343.096 238.805L343.362 239.921C343.879 241.97 344.412 246.152 342.113 246.468C339.88 246.288 337.733 245.53 335.882 244.269L335.482 244.036C336.098 246.235 335.715 249.034 333.949 250.1C333.445 250.444 332.879 250.687 332.283 250.816C334.982 250.55 336.548 247.801 335.948 244.436L335.665 244.735C337.631 245.902 340.913 248.067 343.046 247.001C345.061 245.502 344.595 242.003 344.078 239.604L343.529 240.204C345.102 241.293 346.902 242.011 348.793 242.303C353.358 242.803 352.808 236.939 351.909 233.057L351.426 233.673C354.191 234.54 359.039 235.656 360.622 231.724C361.472 228.709 359.439 223.977 358.339 221.312H358.306Z" fill="#C7C7C7"/>
<path d="M327.769 230.158C329.085 221.112 334.649 213.231 341.097 207.051C347.077 201.736 354.258 197.988 361.089 194.089C367.586 190.591 376.899 185.759 383.213 182.061C390.393 177.829 397.757 173.614 403.205 167.217C400.937 170.771 398.114 173.938 394.842 176.596C388.177 181.809 381.088 186.456 373.65 190.491C366.336 194.622 358.856 198.471 351.642 202.736C348.035 204.712 344.645 207.063 341.53 209.75C335.15 215.148 330.397 222.214 327.802 230.158H327.769Z" fill="white"/>
<path d="M347.727 251.183C347.727 251.183 368.436 231.191 351.059 207.267C333.683 183.343 308.776 198.654 308.776 198.654C316.867 219.311 330.311 237.442 347.727 251.183Z" fill="#DBDBDB"/>
<path d="M347.711 251.183C330.328 237.427 316.915 219.299 308.843 198.654C308.843 198.654 335.882 218.479 347.711 251.183Z" fill="#DBDBDB"/>
<path d="M346.744 210.516C346.968 210.83 347.251 211.098 347.579 211.302C347.906 211.507 348.27 211.645 348.651 211.709C349.032 211.772 349.422 211.76 349.798 211.672C350.174 211.585 350.529 211.424 350.842 211.199L354.174 208.783C354.491 208.559 354.76 208.275 354.966 207.947C355.173 207.619 355.312 207.253 355.377 206.871C355.442 206.489 355.431 206.097 355.345 205.719C355.259 205.341 355.099 204.984 354.874 204.668C354.649 204.353 354.364 204.085 354.035 203.881C353.706 203.676 353.34 203.538 352.958 203.474C352.576 203.411 352.185 203.423 351.808 203.511C351.43 203.599 351.074 203.76 350.759 203.985L347.344 206.401C346.72 206.868 346.307 207.564 346.195 208.335C346.083 209.106 346.28 209.89 346.744 210.516Z" fill="#DBDBDB"/>
<path opacity="0.4" d="M346.744 210.516C346.968 210.83 347.251 211.098 347.579 211.302C347.906 211.507 348.27 211.645 348.651 211.709C349.032 211.772 349.422 211.76 349.798 211.672C350.174 211.585 350.529 211.424 350.842 211.199L354.174 208.783C354.491 208.559 354.76 208.275 354.966 207.947C355.173 207.619 355.312 207.253 355.377 206.871C355.442 206.489 355.431 206.097 355.345 205.719C355.259 205.341 355.099 204.984 354.874 204.668C354.649 204.353 354.364 204.085 354.035 203.881C353.706 203.676 353.34 203.538 352.958 203.474C352.576 203.411 352.185 203.423 351.808 203.511C351.43 203.599 351.074 203.76 350.759 203.985L347.344 206.401C346.72 206.868 346.307 207.564 346.195 208.335C346.083 209.106 346.28 209.89 346.744 210.516Z" fill="white"/>
<path opacity="0.2" d="M347.711 251.183C330.328 237.427 316.915 219.299 308.843 198.654C308.843 198.654 335.882 218.479 347.711 251.183Z" fill="black"/>
<path d="M321.421 230.841C321.645 231.156 321.929 231.423 322.256 231.628C322.583 231.832 322.948 231.97 323.329 232.034C323.709 232.097 324.099 232.085 324.475 231.997C324.851 231.91 325.206 231.749 325.52 231.524L337.315 223.194L333.9 218.379L322.121 226.709C321.802 226.934 321.531 227.219 321.323 227.548C321.115 227.878 320.975 228.245 320.91 228.629C320.844 229.014 320.856 229.407 320.944 229.786C321.032 230.166 321.194 230.524 321.421 230.841Z" fill="#DBDBDB"/>
<path opacity="0.3" d="M321.421 230.841C321.645 231.156 321.929 231.423 322.256 231.628C322.583 231.832 322.948 231.97 323.329 232.034C323.709 232.097 324.099 232.085 324.475 231.997C324.851 231.91 325.206 231.749 325.52 231.524L337.315 223.194L333.9 218.379L322.121 226.709C321.802 226.934 321.531 227.219 321.323 227.548C321.115 227.878 320.975 228.245 320.91 228.629C320.844 229.014 320.856 229.407 320.944 229.786C321.032 230.166 321.194 230.524 321.421 230.841Z" fill="black"/>
<path d="M347.711 251.183C335.882 218.479 308.843 198.654 308.843 198.654C308.843 198.654 333.833 183.343 351.126 207.267C368.419 231.191 347.711 251.183 347.711 251.183Z" fill="#DBDBDB"/>
<path opacity="0.4" d="M347.711 251.183C335.882 218.479 308.843 198.654 308.843 198.654C308.843 198.654 333.833 183.343 351.126 207.267C368.419 231.191 347.711 251.183 347.711 251.183Z" fill="white"/>
<g opacity="0.3">
<path d="M346.728 202.136C336.865 199.004 325.286 203.635 318.572 207.134C316.556 205.168 314.741 203.519 313.258 202.136C333.25 192.04 346.045 201.486 346.694 201.969L346.728 202.136Z" fill="white"/>
<path d="M348.394 203.868C339.309 204.189 330.442 206.734 322.571 211.282C321.971 210.632 321.371 210.016 320.788 209.416C329.235 204.867 338.845 202.936 348.394 203.868Z" fill="white"/>
</g>
<path opacity="0.1" d="M347.727 251.183C342.829 238.203 335.652 226.203 326.535 215.747C331.533 221.445 345.044 235.739 350.209 234.306C354.641 233.123 357.023 220.978 354.357 212.648C365.436 234.073 347.727 251.183 347.727 251.183Z" fill="black"/>
<path d="M189.29 257.697C187.841 266.595 188.167 275.691 190.249 284.462C192.332 293.234 196.131 301.506 201.426 308.802C206.721 316.098 213.408 322.274 221.101 326.973C228.795 331.672 237.342 334.802 246.251 336.182L269.158 339.864L286.418 204.218L271.557 201.836C270.447 201.58 269.281 201.364 268.059 201.186C259.173 199.692 250.078 199.97 241.3 202.005C232.522 204.041 224.234 207.793 216.912 213.046C209.59 218.299 203.38 224.948 198.64 232.611C193.899 240.275 190.722 248.8 189.29 257.697Z" fill="#DBDBDB"/>
<path opacity="0.2" d="M189.29 257.697C187.841 266.595 188.167 275.691 190.249 284.462C192.332 293.234 196.131 301.506 201.426 308.802C206.721 316.098 213.408 322.274 221.101 326.973C228.795 331.672 237.342 334.802 246.251 336.182L269.158 339.864L286.418 204.218L271.557 201.836C270.447 201.58 269.281 201.364 268.059 201.186C259.173 199.692 250.078 199.97 241.3 202.005C232.522 204.041 224.234 207.793 216.912 213.046C209.59 218.299 203.38 224.948 198.64 232.611C193.899 240.275 190.722 248.8 189.29 257.697Z" fill="black"/>
<g opacity="0.05">
<path d="M271.773 319.372H210.914C205.579 314.562 201.036 308.939 197.453 302.712H273.889L271.773 319.372Z" fill="black"/>
<path d="M274.456 298.214L195.088 298.131C194.288 296.465 193.572 294.799 192.905 293.133L275.106 293.216L274.456 298.214Z" fill="black"/>
</g>
<path d="M337.669 277.233C341.034 239.53 315.501 206.443 280.638 203.332C245.776 200.22 214.787 228.262 211.422 265.966C208.057 303.669 233.591 336.756 268.453 339.867C303.315 342.979 334.304 314.936 337.669 277.233Z" fill="#DBDBDB"/>
<path opacity="0.1" d="M337.365 279.01C340.575 243.038 316.915 211.534 284.518 208.643C252.121 205.751 223.256 232.568 220.045 268.539C216.835 304.51 240.495 336.015 272.892 338.906C305.289 341.797 334.155 314.981 337.365 279.01Z" fill="black"/>
<path d="M333.665 278.679C336.673 244.981 314.505 215.467 284.151 212.758C253.798 210.049 226.754 235.171 223.746 268.869C220.739 302.568 242.907 332.082 273.26 334.79C303.614 337.499 330.658 312.378 333.665 278.679Z" fill="white"/>
<path opacity="0.5" d="M333.916 270.775C306.41 282.854 261.211 302.679 235.988 313.441C230.486 306.031 226.686 297.499 224.859 288.451L312.907 224.927C319.409 230.685 324.636 237.737 328.253 245.632C331.871 253.528 333.8 262.091 333.916 270.775Z" fill="#EBEBEB"/>
<path opacity="0.5" d="M332.617 285.919C331.312 292.553 328.997 298.947 325.753 304.878L252.082 327.969C249.295 326.317 246.663 324.415 244.219 322.288C266.86 312.925 308.21 295.932 332.617 285.919Z" fill="#EBEBEB"/>
<path d="M288.218 219.479L287.285 225.077L286.785 224.977H286.269L287.202 219.362L288.218 219.479Z" fill="white"/>
<path d="M264.31 227.242L263.327 227.659L261.661 222.344L262.644 221.945L264.31 227.242Z" fill="white"/>
<path d="M245.119 241.903C244.885 242.187 244.669 242.486 244.452 242.786L240.554 239.171L241.22 238.288L245.119 241.903Z" fill="white"/>
<path d="M234.906 265.644C234.906 265.844 234.906 266.027 234.822 266.21L229.824 265.277L230.007 264.144L235.005 265.077L234.906 265.644Z" fill="white"/>
<path d="M236.822 291.667L231.99 293.666L231.641 292.583L236.472 290.6C236.572 290.95 236.689 291.317 236.822 291.667Z" fill="white"/>
<path d="M250.116 312.325L246.784 316.707L246.001 315.974L249.333 311.592C249.583 311.859 249.899 312.092 250.116 312.325Z" fill="white"/>
<path d="M271.074 322.654L270.141 328.252L269.125 328.069L270.058 322.454L270.558 322.554L271.074 322.654Z" fill="white"/>
<path d="M295.781 325.203L294.814 325.603L293.148 320.289L294.131 319.889L295.781 325.203Z" fill="white"/>
<path d="M316.856 308.36L316.189 309.243L312.291 305.644L312.974 304.761L316.856 308.36Z" fill="white"/>
<path d="M327.702 282.254L327.519 283.387L322.521 282.454C322.521 282.27 322.521 282.07 322.62 281.887L322.72 281.321L327.702 282.254Z" fill="white"/>
<path d="M325.769 254.898L320.938 256.897C320.838 256.531 320.721 256.181 320.604 255.814L325.419 253.832L325.769 254.898Z" fill="white"/>
<path d="M311.408 231.574L308.076 235.956L307.276 235.223L310.608 230.841L311.408 231.574Z" fill="white"/>
<path d="M309.926 233.557L278.305 278.805L274.34 275.09L308.843 232.54L309.926 233.557Z" fill="#C7C7C7"/>
<path d="M265.993 235.272L282.52 276.289L277.605 278.372L264.644 235.822L265.993 235.272Z" fill="#DBDBDB"/>
<path d="M280.47 274.09C280.448 274.338 280.375 274.579 280.257 274.799C280.139 275.018 279.978 275.211 279.784 275.367C279.589 275.523 279.365 275.637 279.125 275.704C278.886 275.771 278.635 275.789 278.388 275.756C277.899 275.637 277.475 275.332 277.208 274.906C276.94 274.48 276.85 273.966 276.955 273.474C276.978 273.226 277.05 272.985 277.168 272.766C277.286 272.546 277.447 272.353 277.641 272.197C277.836 272.042 278.06 271.927 278.3 271.86C278.54 271.793 278.791 271.776 279.037 271.808C279.524 271.931 279.945 272.237 280.212 272.662C280.479 273.087 280.571 273.599 280.47 274.09Z" fill="#C7C7C7"/>
<path d="M280.188 272.374C280.515 272.823 280.669 273.375 280.623 273.928C280.578 274.482 280.334 275.001 279.938 275.39C279.753 275.571 279.531 275.709 279.287 275.796C279.044 275.884 278.784 275.917 278.527 275.895C278.269 275.873 278.019 275.796 277.794 275.668C277.569 275.541 277.374 275.366 277.222 275.157C276.894 274.707 276.74 274.153 276.789 273.599C276.838 273.044 277.087 272.526 277.489 272.141C277.672 271.961 277.893 271.822 278.135 271.735C278.377 271.648 278.636 271.614 278.892 271.636C279.148 271.658 279.397 271.736 279.621 271.863C279.844 271.991 280.038 272.165 280.188 272.374Z" fill="#DBDBDB"/>
<path d="M279.337 273.174L303.478 306.128L303.045 306.544L278.071 274.357L279.337 273.174Z" fill="#DBDBDB"/>
<path d="M237.954 211.299C237.558 211.512 237.123 211.643 236.675 211.684C236.227 211.725 235.775 211.675 235.347 211.536C234.919 211.398 234.523 211.174 234.184 210.878C233.845 210.582 233.569 210.221 233.373 209.816L228.708 200.636L234.789 197.554L239.454 206.717C239.667 207.114 239.797 207.55 239.837 207.999C239.876 208.448 239.824 208.9 239.684 209.329C239.544 209.757 239.319 210.152 239.021 210.491C238.724 210.83 238.361 211.104 237.954 211.299Z" fill="#DBDBDB"/>
<path opacity="0.3" d="M237.954 211.299C237.558 211.512 237.123 211.643 236.675 211.684C236.227 211.725 235.775 211.675 235.347 211.536C234.919 211.398 234.523 211.174 234.184 210.878C233.845 210.582 233.569 210.221 233.373 209.816L228.708 200.636L234.789 197.554L239.454 206.717C239.667 207.114 239.797 207.55 239.837 207.999C239.876 208.448 239.824 208.9 239.684 209.329C239.544 209.757 239.319 210.152 239.021 210.491C238.724 210.83 238.361 211.104 237.954 211.299Z" fill="black"/>
<path d="M199.72 218.729C199.72 218.729 189.24 187.075 219.845 171.881C250.449 156.687 267.826 185.809 267.826 185.809C267.826 185.809 237.638 210.183 199.72 218.729Z" fill="#DBDBDB"/>
<path opacity="0.4" d="M199.72 218.729C199.72 218.729 189.24 187.075 219.845 171.881C250.449 156.687 267.826 185.809 267.826 185.809C267.826 185.809 237.638 210.183 199.72 218.729Z" fill="white"/>
<g opacity="0.3">
<path d="M213.248 214.914C210.799 215.73 208.25 216.497 205.717 217.18C199.586 187.941 215.28 174.564 215.863 174.064C208.366 187.908 211.432 206.951 213.248 214.914Z" fill="white"/>
<path d="M219.545 212.715L216.529 213.831L216.379 213.248C213.181 199.841 213.828 185.804 218.245 172.748C215.197 185.957 215.645 199.732 219.545 212.715Z" fill="white"/>
</g>
<path opacity="0.1" d="M267.826 185.809C255.16 195.499 241.351 203.595 226.709 209.916C241.42 202.219 255.381 190.507 256.214 184.026C256.647 180.844 255.581 174.03 239.654 167.666C257.83 169.049 267.826 185.809 267.826 185.809Z" fill="black"/>
<path d="M222.593 177.579C222.196 177.792 221.76 177.922 221.311 177.962C220.862 178.001 220.41 177.95 219.982 177.809C219.554 177.669 219.158 177.444 218.82 177.146C218.481 176.849 218.206 176.486 218.012 176.079L215.813 171.748C215.6 171.351 215.47 170.915 215.43 170.466C215.39 170.017 215.442 169.565 215.582 169.136C215.722 168.708 215.948 168.313 216.245 167.974C216.543 167.635 216.906 167.361 217.312 167.166C217.709 166.953 218.145 166.823 218.594 166.783C219.043 166.744 219.496 166.796 219.924 166.936C220.352 167.076 220.747 167.302 221.086 167.599C221.425 167.896 221.699 168.259 221.894 168.666L224.093 172.997C224.306 173.394 224.436 173.831 224.476 174.28C224.515 174.728 224.464 175.181 224.323 175.609C224.183 176.037 223.958 176.433 223.66 176.771C223.363 177.11 223 177.385 222.593 177.579Z" fill="#DBDBDB"/>
<path opacity="0.4" d="M222.593 177.579C222.196 177.792 221.76 177.922 221.311 177.962C220.862 178.001 220.41 177.95 219.982 177.809C219.554 177.669 219.158 177.444 218.82 177.146C218.481 176.849 218.206 176.486 218.012 176.079L215.813 171.748C215.6 171.351 215.47 170.915 215.43 170.466C215.39 170.017 215.442 169.565 215.582 169.136C215.722 168.708 215.948 168.313 216.245 167.974C216.543 167.635 216.906 167.361 217.312 167.166C217.709 166.953 218.145 166.823 218.594 166.783C219.043 166.744 219.496 166.796 219.924 166.936C220.352 167.076 220.747 167.302 221.086 167.599C221.425 167.896 221.699 168.259 221.894 168.666L224.093 172.997C224.306 173.394 224.436 173.831 224.476 174.28C224.515 174.728 224.464 175.181 224.323 175.609C224.183 176.037 223.958 176.433 223.66 176.771C223.363 177.11 223 177.385 222.593 177.579Z" fill="white"/>
<path d="M206.584 258.23C206.584 258.23 207.484 253.582 209.183 244.102C210.849 235.139 214.764 211.965 211.399 200.786C202.569 171.598 161.385 151.323 139.294 121.285C127.199 104.825 129.298 99.4935 124.117 98.3773C118.936 97.2611 113.105 126.866 136.029 150.873C136.029 150.873 119.819 149.524 118.469 153.422C117.12 157.32 128.598 164.901 137.395 167.633C137.395 167.633 119.169 173.431 119.802 179.145C120.435 184.859 137.628 188.741 145.159 188.941C145.159 188.941 134.23 193.822 135.596 198.221C137.678 204.985 155.421 204.352 155.421 204.352C155.421 204.352 148.474 207.917 150.423 211.016C153.172 215.281 167.283 215.58 167.283 215.58C167.283 215.58 165.617 227.476 183.726 228.725C183.726 228.725 183.726 238.188 197.538 238.005C197.538 238.005 201.469 243.286 201.753 247.851C202.036 252.416 204.385 257.814 206.584 258.23Z" fill="#EBEBEB"/>
<path d="M207.616 245.169C207.321 244.016 206.749 242.952 205.95 242.07C203.685 239.154 201.652 235.406 204.468 232.174L204.634 232.74C199.636 231.258 196.671 227.176 199.736 222.328C200.524 221.072 201.458 219.914 202.518 218.879L203.068 219.929C186.242 222.728 185.692 215.914 197.97 206.384L198.653 207.85C181.077 211.715 175.063 208.817 189.257 193.873L189.94 195.289C188.633 195.403 187.316 195.342 186.025 195.105C177.828 193.623 177.695 186.176 178.611 179.512C178.964 177.153 178.765 174.745 178.031 172.476C177.297 170.207 176.047 168.139 174.38 166.433C170.899 163.029 166.753 160.38 162.201 158.653C159.934 157.719 157.607 156.934 155.237 156.304C157.676 156.779 160.077 157.437 162.418 158.27C172.131 161.719 181.194 168.116 180.094 179.595C179.827 183.193 179.344 186.792 181.027 189.991C182.71 193.189 186.558 193.873 189.84 193.606L192.056 193.439L190.523 195.105C188.857 196.771 181.443 204.968 183.493 206.951C186.675 208.8 194.705 206.951 198.353 206.301L201.985 205.468C199.136 207.75 190.94 213.515 191.106 217.296C192.073 220.129 200.436 219.096 202.935 218.763L204.884 218.479C202.585 220.695 199.553 223.261 199.586 226.693C199.753 229.642 202.918 231.441 205.401 232.29C202.219 235.489 204.084 238.838 206.2 242.003C206.932 242.941 207.419 244.046 207.616 245.219V245.169Z" fill="#C7C7C7"/>
<path d="M175.429 191.124C174 192.603 172.681 194.184 171.481 195.855C170.369 197.184 169.7 198.826 169.565 200.553C170.331 204.635 176.695 205.384 180.127 205.651H181.06C179.934 207.19 179.015 208.87 178.328 210.649C175.862 216.98 185.459 216.064 189.157 215.647L188.407 216.647C187.041 218.496 184.892 222.494 187.774 223.844C190.648 224.639 193.656 224.82 196.604 224.377H197.204C196.353 225.304 195.871 226.511 195.849 227.77C195.828 229.029 196.268 230.252 197.087 231.207C197.634 231.776 198.263 232.259 198.953 232.64C198.179 232.363 197.48 231.911 196.91 231.317C196.34 230.724 195.916 230.007 195.671 229.223C195.425 228.438 195.365 227.607 195.495 226.795C195.626 225.983 195.942 225.212 196.421 224.543L196.671 224.977C193.739 225.293 188.741 226.01 186.325 223.994C184.242 221.595 186.058 218.246 187.558 216.047L188.058 216.913C185.549 217.294 182.991 217.215 180.511 216.68C174.413 215.164 177.179 209.483 179.678 205.934L180.077 206.767C176.212 206.434 169.532 205.401 168.849 200.703C168.849 197.288 173.064 193.406 175.513 191.19L175.429 191.124Z" fill="#C7C7C7"/>
<path opacity="0.1" d="M206.584 258.23C204.318 257.813 202.036 252.449 201.752 247.884C201.469 243.319 197.537 238.038 197.537 238.038C183.676 238.221 183.726 228.758 183.726 228.758C165.534 227.509 167.283 215.614 167.283 215.614C170.765 224.993 185.092 225.96 185.092 225.96C188.674 236.855 198.57 235.956 198.57 235.956C200.086 236.983 201.667 237.912 203.302 238.738C205.418 239.737 207.6 226.01 208.733 215.33C209.799 205.235 204.401 186.809 200.403 181.527C205.259 187.21 208.96 193.786 211.299 200.886C214.631 212.032 210.699 235.206 209.083 244.202C207.55 253.599 206.584 258.23 206.584 258.23Z" fill="black"/>
<path d="M138.111 149.357C127.748 139.527 120.351 125.1 121.101 110.556C121.232 108.096 121.64 105.66 122.317 103.292C122.41 102.733 122.652 102.209 123.017 101.776C124.033 100.91 124.966 102.326 125.366 103.125C125.929 104.207 126.429 105.319 126.865 106.457C126.149 105.508 125.466 104.508 124.733 103.608C124.483 103.309 123.983 102.709 123.683 102.642C123.683 102.642 123.85 102.642 123.833 102.642C123.731 102.961 123.67 103.291 123.65 103.625C121.434 120.135 129.181 135.896 138.111 149.34V149.357Z" fill="white"/>
<path d="M121.868 152.772C123.534 155.921 126.966 157.537 129.798 159.436C132.956 161.263 136 163.283 138.911 165.484C133.183 164.924 127.854 162.301 123.917 158.103C122.734 156.621 121.434 154.688 121.851 152.722L121.868 152.772Z" fill="white"/>
<path d="M136.462 170.665C134.238 172.406 131.837 173.908 129.298 175.147C126.999 176.513 124.3 177.262 122.634 179.511C122.552 178.727 122.66 177.934 122.95 177.2C123.24 176.466 123.703 175.813 124.3 175.297C125.909 173.767 127.804 172.57 129.877 171.775C131.95 170.98 134.16 170.603 136.379 170.665H136.462Z" fill="white"/>
<path d="M183.543 175.213C184.061 177.958 184.29 180.75 184.226 183.543C184.376 186.209 183.776 189.008 185.026 191.44C183.476 191.09 182.577 189.358 182.093 187.975C181.477 185.844 181.288 183.612 181.537 181.408C181.786 179.203 182.467 177.07 183.543 175.13V175.213Z" fill="white"/>
<path d="M196.321 610.772C235.706 585.416 280.154 558.31 320.705 534.803C281.271 560.159 236.872 587.298 196.321 610.772Z" fill="white"/>
<path d="M95.1953 747.084C170.165 700.003 254.998 648.207 331.151 602.975C256.181 650.073 171.332 701.852 95.1953 747.084Z" fill="white"/>
<path d="M301.546 687.242C332.15 667.25 363.538 648.074 395.308 629.981C364.704 649.973 333.317 669.149 301.546 687.242Z" fill="white"/>
<path d="M152.056 666.233C182.66 646.241 214.048 627.066 245.818 608.973C215.214 628.965 183.826 648.141 152.056 666.233Z" fill="white"/>
<path d="M225.793 687.242C243.115 675.322 261.073 664.355 279.588 654.388C262.256 666.292 244.299 677.259 225.793 687.242Z" fill="white"/>
<path d="M386.729 679.328C404.057 667.398 422.014 656.408 440.524 646.408C423.197 658.32 405.239 669.288 386.729 679.261V679.328Z" fill="white"/>
<path d="M316.174 563.225C333.512 551.32 351.475 540.354 369.986 530.371C352.656 542.287 334.692 553.255 316.174 563.225Z" fill="white"/>
<path d="M657.037 449.937C657.037 449.937 653.455 440.024 646.375 419.799C639.711 400.673 622.667 351.159 624.05 326.953C627.665 263.328 693.406 216.78 720.528 150.54C735.389 114.271 729.391 102.975 738.238 100.16C747.084 97.3444 770.142 160.519 738.971 213.881C738.971 213.881 767.626 209.749 771.724 218.013C775.823 226.276 758.313 243.453 743.602 249.983C743.602 249.983 778.938 261.062 780.254 273.307C781.57 285.552 752.182 295.282 738.604 296.281C738.604 296.281 760.396 305.944 759.796 315.49C758.896 330.185 726.626 330.168 726.626 330.168C726.626 330.168 740.67 337.315 738.288 344.196C735.122 353.559 709.799 355.291 709.799 355.291C709.799 355.291 718.046 380.764 685.775 384.846C685.775 384.846 689.874 405.171 664.801 405.854C664.801 405.854 659.936 417.516 661.369 427.312C662.801 437.108 660.935 448.837 657.037 449.937Z" fill="#EBEBEB"/>
<path d="M653.939 421.931C653.88 419.577 654.412 417.246 655.488 415.151C658.32 408.703 660.486 400.69 653.955 393.792V394.975C662.285 391.427 665.967 382.414 658.387 372.251C656.465 369.648 654.294 367.238 651.906 365.054L651.373 367.37C682.91 372.084 681.011 357.374 654.821 337.865L654.205 341.047C687.525 348.027 697.188 341.347 665.251 310.326L664.601 313.425C666.951 313.571 669.31 313.329 671.581 312.708C685.759 308.91 682.794 292.883 678.345 278.639C675.197 268.376 675.68 257.914 680.445 250.233C685.073 242.858 691.507 236.785 699.137 232.59C702.822 230.403 706.691 228.542 710.699 227.026C706.563 228.227 702.556 229.834 698.737 231.824C682.694 239.971 669.016 254.398 675.88 278.972C677.879 286.685 680.261 294.399 678.612 301.396C676.863 308.06 670.282 310.143 664.251 309.843L660.169 309.626L663.501 312.958C667.067 316.29 684.076 333.45 681.228 337.948C676.23 342.13 661.019 338.981 654.138 337.648L647.241 336.166C653.339 340.83 670.565 352.609 671.881 360.756C671.315 366.887 655.788 365.304 651.156 364.787L647.508 364.321C652.589 368.902 659.17 374.2 660.553 381.564C661.502 387.911 656.687 392.027 652.422 394.059C659.536 400.723 657.587 408.02 655.105 414.967C654.151 417.182 653.745 419.593 653.922 421.998L653.939 421.931Z" fill="#C7C7C7"/>
<path d="M689.124 303.362C692.353 306.468 695.396 309.761 698.237 313.225C700.469 316.207 703.135 319.439 703.684 323.221C704.018 332.051 692.855 334.15 686.791 334.966L685.125 335.133C687.836 338.38 690.198 341.904 692.172 345.645C699.286 359.056 681.593 357.807 674.746 357.107L676.512 359.206C679.761 363.072 685.325 371.501 680.71 374.617C676.245 376.999 670.281 376.683 665 376.433H663.9C667.516 380.481 669.648 386.879 666.983 391.077C666.29 392.35 665.363 393.48 664.25 394.409C669.765 390.977 670.231 383.463 665.383 376.816L665.1 377.766C670.548 378.215 679.844 379.432 683.426 374.867C686.158 369.552 681.493 362.505 677.845 357.89L677.295 359.773C681.827 360.434 686.45 360.069 690.823 358.707C701.169 354.991 693.772 342.98 687.774 335.549L687.391 337.382C694.238 336.349 705.85 333.633 705.101 323.504C703.734 316.14 694.388 308.11 689.207 303.512L689.124 303.362Z" fill="#C7C7C7"/>
<path d="M632.83 354.525C626.166 333.717 629.764 310.892 637.228 290.75C644.475 273.041 655.971 257.43 666.683 241.753C676.962 227.409 691.806 207.017 701.586 192.623C712.548 175.963 723.927 159.12 729.041 139.594C728.058 149.59 724.476 159.403 720.361 168.649C711.931 187.109 700.786 204.135 689.457 220.862C678.128 237.588 666.133 253.599 655.071 270.325C649.433 278.438 644.654 287.114 640.81 296.215C633.43 314.541 629.348 334.849 632.83 354.525Z" fill="white"/>
<path d="M697.854 378.698C697.854 378.698 721.294 313.891 658.886 280.721C596.477 247.551 558.926 306.777 558.926 306.777C558.926 306.777 610.239 359.256 697.854 378.698Z" fill="#FFC700"/>
<path d="M697.837 378.699C610.239 359.256 558.942 306.777 558.942 306.777C558.942 306.777 637.944 320.905 697.837 378.699Z" fill="#FFC700"/>
<path d="M652.888 292.316C653.701 292.761 654.594 293.041 655.516 293.139C656.438 293.238 657.37 293.153 658.259 292.89C659.147 292.626 659.975 292.19 660.695 291.606C661.414 291.021 662.011 290.3 662.451 289.484L667.232 280.671C668.122 279.027 668.323 277.097 667.792 275.304C667.261 273.512 666.041 272.003 664.4 271.108C662.756 270.219 660.826 270.018 659.033 270.548C657.241 271.079 655.732 272.299 654.837 273.94L650.056 282.754C649.166 284.398 648.965 286.328 649.496 288.12C650.027 289.913 651.247 291.422 652.888 292.316Z" fill="#FFC700"/>
<path opacity="0.4" d="M652.888 292.316C653.701 292.761 654.594 293.041 655.516 293.139C656.438 293.238 657.37 293.153 658.259 292.89C659.147 292.626 659.975 292.19 660.695 291.606C661.414 291.021 662.011 290.3 662.451 289.484L667.232 280.671C668.122 279.027 668.323 277.097 667.792 275.304C667.261 273.512 666.041 272.003 664.4 271.108C662.756 270.219 660.826 270.018 659.033 270.548C657.241 271.079 655.732 272.299 654.837 273.94L650.056 282.754C649.166 284.398 648.965 286.328 649.496 288.12C650.027 289.913 651.247 291.422 652.888 292.316Z" fill="white"/>
<path opacity="0.2" d="M697.837 378.699C610.239 359.256 558.942 306.777 558.942 306.777C558.942 306.777 637.944 320.905 697.837 378.699Z" fill="black"/>
<path d="M621.543 361.151L618.787 359.648C617.5 358.946 616.544 357.762 616.13 356.355C615.717 354.949 615.879 353.435 616.581 352.148L633.926 320.349L646.344 327.122L628.999 358.922C628.301 360.201 627.126 361.153 625.729 361.571C624.333 361.988 622.829 361.838 621.543 361.151Z" fill="#FFC700"/>
<path opacity="0.3" d="M621.543 361.151L618.787 359.648C617.5 358.946 616.544 357.762 616.13 356.355C615.717 354.949 615.879 353.435 616.581 352.148L633.926 320.349L646.344 327.122L628.999 358.922C628.301 360.201 627.126 361.153 625.729 361.571C624.333 361.988 622.829 361.838 621.543 361.151Z" fill="black"/>
<path d="M697.837 378.698C637.944 320.905 558.942 306.777 558.942 306.777C558.942 306.777 596.494 247.534 658.902 280.721C721.311 313.908 697.837 378.698 697.837 378.698Z" fill="#FFC700"/>
<path opacity="0.4" d="M697.837 378.698C637.944 320.905 558.942 306.777 558.942 306.777C558.942 306.777 596.494 247.534 658.902 280.721C721.311 313.908 697.837 378.698 697.837 378.698Z" fill="white"/>
<g opacity="0.3">
<path d="M644.025 274.324C619.535 277.972 599.56 300.147 588.831 314.857C582.433 312.742 576.819 311.109 572.171 309.859C604.475 267.093 641.976 273.907 643.809 274.274L644.025 274.324Z" fill="white"/>
<path d="M649.456 276.306C630.263 286.565 613.883 301.383 601.759 319.456C599.776 318.689 597.827 317.989 595.928 317.306C619.618 285.336 649.456 276.306 649.456 276.306Z" fill="white"/>
</g>
<path opacity="0.1" d="M697.837 378.682C671.181 352.959 640.66 335.849 615.087 324.82C631.997 331.701 675.879 348.144 685.509 339.814C693.839 332.6 686.075 303.895 671.564 288.751C717.912 323.204 697.837 378.682 697.837 378.682Z" fill="black"/>
<path d="M364.204 559.626C370.475 580.27 380.767 599.47 394.487 616.121C408.208 632.771 425.086 646.544 444.15 656.646C463.214 666.748 484.088 672.98 505.571 674.983C527.053 676.985 548.719 674.72 569.322 668.316L622.468 652.156L516.643 342.446L482.274 352.825C479.541 353.503 476.798 354.264 474.044 355.108C453.364 361.265 434.107 371.45 417.38 385.078C400.652 398.706 386.785 415.508 376.577 434.516C366.368 453.525 360.019 474.364 357.896 495.836C355.773 517.307 357.916 538.986 364.204 559.626Z" fill="#FFC700"/>
<path opacity="0.2" d="M364.204 559.626C370.475 580.27 380.767 599.47 394.487 616.121C408.208 632.771 425.086 646.544 444.15 656.646C463.214 666.748 484.088 672.98 505.571 674.983C527.053 676.985 548.719 674.72 569.322 668.316L622.468 652.156L516.643 342.446L482.274 352.825C479.541 353.503 476.798 354.264 474.044 355.108C453.364 361.265 434.107 371.45 417.38 385.078C400.652 398.706 386.785 415.508 376.577 434.516C366.368 453.525 360.019 474.364 357.896 495.836C355.773 517.307 357.916 538.986 364.204 559.626Z" fill="black"/>
<g opacity="0.05">
<path d="M606.424 605.308L475.576 669.299C459.034 664.572 443.341 657.262 429.078 647.641L593.429 567.256L606.424 605.308Z" fill="black"/>
<path d="M589.931 556.927L419.232 640.41C415.8 637.712 412.468 634.868 409.236 631.881L585.999 545.432L589.931 556.927Z" fill="black"/>
</g>
<path d="M620.946 652.775C699.138 622.729 736.18 529.811 703.681 445.237C671.182 360.663 581.45 316.46 503.257 346.507C425.065 376.553 388.023 469.471 420.522 554.045C453.021 638.619 542.753 682.822 620.946 652.775Z" fill="#FFC700"/>
<path opacity="0.1" d="M629.422 646.159C702.105 618.244 735.899 530.19 704.903 449.484C673.907 368.779 589.858 325.984 517.175 353.899C444.492 381.814 410.698 469.868 441.694 550.574C472.69 631.279 556.739 674.074 629.422 646.159Z" fill="black"/>
<path d="M625.873 636.905C693.961 610.754 725.618 528.267 696.582 452.663C667.545 377.06 588.81 336.97 520.722 363.12C452.635 389.27 420.977 471.758 450.014 547.361C479.051 622.965 557.785 663.055 625.873 636.905Z" fill="white"/>
<path opacity="0.5" d="M688.824 435.359C642.426 490.337 566.156 580.518 523.323 630.281C503.726 620.172 486.593 605.873 473.144 588.398L595.445 359.09C633.913 368.969 668.499 396.508 688.824 435.359Z" fill="#EBEBEB"/>
<path opacity="0.5" d="M701.985 469.279C706.17 484.911 707.929 501.093 707.2 517.26L573.187 644.492C565.459 643.893 557.802 642.588 550.312 640.594C589.13 596.611 660.135 516.46 701.985 469.279Z" fill="#EBEBEB"/>
<path d="M536.718 373.184L540.6 386.212L539.401 386.529L538.218 386.879L534.319 373.85L536.718 373.184Z" fill="white"/>
<path d="M493.369 415.15C492.803 415.767 492.237 416.4 491.703 417.05L482.44 407.42L484.106 405.521L493.369 415.15Z" fill="white"/>
<path d="M467.546 466.847C467.362 467.713 467.196 468.513 467.029 469.462L454.817 465.814L455.334 463.198L467.546 466.847Z" fill="white"/>
<path d="M470.462 528.722C470.595 529.172 470.728 529.605 470.878 530.038L459.066 533.37L458.267 530.738L470.079 527.406C470.212 527.839 470.345 528.289 470.462 528.722Z" fill="white"/>
<path d="M502.132 582.584L493.802 591.946L491.937 589.997L500.267 580.634L502.132 582.584Z" fill="white"/>
<path d="M552.495 612.971L549.963 625.883L547.497 625.15L550.029 612.222C550.846 612.505 551.662 612.738 552.495 612.971Z" fill="white"/>
<path d="M608.406 613.088L612.304 626.116L609.922 626.782L606.023 613.754L607.223 613.421L608.406 613.088Z" fill="white"/>
<path d="M664.217 592.496L662.551 594.396L653.271 584.766C653.838 584.15 654.404 583.517 654.937 582.884L664.217 592.496Z" fill="white"/>
<path d="M691.756 534.12L691.257 536.735L679.095 533.087C679.278 532.221 679.445 531.421 679.595 530.471L691.756 534.12Z" fill="white"/>
<path d="M687.575 466.58L688.358 469.212L676.546 472.544C676.412 472.095 676.296 471.661 676.163 471.228L675.763 469.912L687.575 466.58Z" fill="white"/>
<path d="M654.738 409.936L646.408 419.299C645.792 418.633 645.175 417.999 644.525 417.35L652.855 407.987L654.738 409.936Z" fill="white"/>
<path d="M599.144 374.85L596.611 387.795C595.778 387.512 594.945 387.278 594.146 387.045L596.678 374.117L599.144 374.85Z" fill="white"/>
<path d="M598.044 380.631L577.752 511.212L565.323 507.397L594.662 379.582L598.044 380.631Z" fill="#37474F"/>
<path d="M505.398 430.611L584.183 501.366L575.786 511.029L503.115 433.227L505.398 430.611Z" fill="#455A64"/>
<path d="M577.435 498.817C577.632 499.373 577.716 499.962 577.683 500.55C577.651 501.138 577.501 501.714 577.244 502.244C576.987 502.774 576.627 503.248 576.185 503.638C575.743 504.028 575.228 504.326 574.67 504.515C573.503 504.774 572.281 504.572 571.259 503.951C570.237 503.33 569.495 502.338 569.189 501.183C568.99 500.627 568.903 500.038 568.935 499.449C568.967 498.86 569.116 498.283 569.374 497.753C569.631 497.222 569.992 496.748 570.435 496.359C570.878 495.969 571.395 495.672 571.954 495.485C573.121 495.226 574.343 495.428 575.365 496.049C576.386 496.67 577.128 497.662 577.435 498.817Z" fill="#C7C7C7"/>
<path d="M575.053 495.402C576.227 496.028 577.137 497.056 577.614 498.299C578.092 499.541 578.105 500.914 577.652 502.166C577.447 502.751 577.117 503.284 576.686 503.729C576.255 504.175 575.732 504.521 575.154 504.744C574.576 504.968 573.956 505.063 573.337 505.023C572.719 504.984 572.116 504.81 571.571 504.515C570.396 503.889 569.487 502.86 569.01 501.618C568.532 500.375 568.519 499.002 568.972 497.751C569.177 497.166 569.506 496.632 569.938 496.187C570.369 495.742 570.892 495.396 571.47 495.172C572.048 494.949 572.668 494.854 573.287 494.893C573.905 494.933 574.508 495.106 575.053 495.402Z" fill="#FFC700"/>
<path d="M574.053 498.017L660.652 543.416L660.135 544.765L572.57 501.916L574.053 498.017Z" fill="#FFC700"/>
<path d="M388.81 395.431L398.628 382.387L420.404 398.779C421.573 399.658 422.344 400.966 422.548 402.414C422.753 403.862 422.373 405.332 421.494 406.501L418.308 410.734C417.428 411.902 416.12 412.673 414.672 412.878C413.224 413.082 411.754 412.702 410.586 411.823L388.81 395.431Z" fill="#FFC700"/>
<path opacity="0.3" d="M388.81 395.431L398.628 382.387L420.404 398.779C421.573 399.658 422.344 400.966 422.548 402.414C422.753 403.862 422.373 405.332 421.494 406.501L418.308 410.734C417.428 411.902 416.12 412.673 414.672 412.878C413.224 413.082 411.754 412.702 410.586 411.823L388.81 395.431Z" fill="black"/>
<path d="M345.562 464.814C345.562 464.814 289.701 407.854 339.464 342.93C389.227 278.005 457.234 322.304 457.234 322.304C457.234 322.304 418.049 406.504 345.562 464.814Z" fill="#FFC700"/>
<path opacity="0.4" d="M345.562 464.814C345.562 464.814 289.701 407.854 339.464 342.93C389.227 278.005 457.234 322.304 457.234 322.304C457.234 322.304 418.049 406.504 345.562 464.814Z" fill="white"/>
<g opacity="0.3">
<path d="M370.601 442.573C366.17 446.905 361.572 451.203 356.807 455.385C312.808 398.974 332.433 353.759 333.183 352.093C331.684 389.528 358.306 427.229 370.601 442.573Z" fill="white"/>
<path d="M381.847 431.061C380.181 432.927 378.332 434.776 376.516 436.659C376.216 436.292 375.916 435.909 375.6 435.543C340.264 392.493 336.832 346.578 336.832 346.578C347.578 391.044 370.619 419.366 381.847 431.061Z" fill="white"/>
</g>
<path opacity="0.1" d="M457.25 322.388C440.204 356.511 419.02 388.405 394.176 417.35C417.683 385.329 435.359 345.445 430.345 330.618C427.896 323.337 418.449 309.809 377.482 312.925C418.166 296.881 457.25 322.388 457.25 322.388Z" fill="black"/>
<path d="M329.361 335.061L328.7 335.94C326.171 339.299 326.844 344.073 330.204 346.602L340.36 354.246C343.719 356.775 348.493 356.102 351.022 352.742L351.683 351.864C354.212 348.504 353.538 343.731 350.179 341.202L340.023 333.557C336.663 331.028 331.89 331.702 329.361 335.061Z" fill="#FFC700"/>
<path opacity="0.4" d="M329.361 335.061L328.7 335.94C326.171 339.299 326.844 344.073 330.204 346.602L340.36 354.246C343.719 356.775 348.493 356.102 351.022 352.742L351.683 351.864C354.212 348.504 353.538 343.731 350.179 341.202L340.023 333.557C336.663 331.028 331.89 331.702 329.361 335.061Z" fill="white"/>
<path d="M402.089 542.5C402.089 542.5 399.107 531.571 392.776 509.43C386.778 488.471 370.935 434.46 351.926 414.051C301.946 360.422 192.156 360.406 113.021 319.089C69.7052 296.465 68.5223 282.82 56.2272 285.852C43.9322 288.884 62.608 358.657 137.178 386.129C137.178 386.129 100.926 400.323 102.192 410.103C103.458 419.882 136.045 424.13 157.837 420.715C157.837 420.715 124.783 452.369 132.147 464.031C139.511 475.693 180.561 465.88 196.954 458.367C196.954 458.367 178.628 480.391 186.159 488.355C197.821 500.683 235.239 480.624 235.239 480.624C235.239 480.624 224.093 495.618 231.724 500.233C242.12 506.481 272.757 492.286 272.757 492.286C272.757 492.286 281.537 519.675 321.971 503.199C321.971 503.199 331.817 523.591 361.438 508.613C361.438 508.613 375.45 515.81 380.847 525.273C386.245 534.736 396.758 543.966 402.089 542.5Z" fill="#EBEBEB"/>
<path d="M390.377 513.394C388.894 510.945 386.095 509.779 383.713 508.396C375.8 504.498 367.553 498.784 370.118 488.688L371.068 489.704C358.756 491.803 348.077 486.139 349.577 472.494C349.95 468.967 350.733 465.495 351.909 462.148L354.208 463.814C320.988 487.538 312.558 473.444 328.985 440.057L332 442.456C298.297 469.295 282.304 469.412 297.014 422.348L299.997 424.663C297.302 426.276 294.406 427.525 291.383 428.378C272.191 433.826 264.094 417.933 259.013 402.655C257.28 397.221 254.315 392.261 250.35 388.161C246.386 384.06 241.528 380.93 236.155 379.015C225.243 375.05 213.298 374.383 201.753 375.133C195.9 375.525 190.08 376.293 184.326 377.432C190.017 375.92 195.815 374.845 201.669 374.217C226.159 371.418 252.399 375.583 262.112 401.406C265.444 409.436 268.109 417.683 275.073 422.797C281.904 427.562 291.067 425.296 297.831 421.281L302.412 418.566L300.746 423.564C299.08 428.778 291.617 454.335 298.114 456.484C306.877 457.084 322.304 444.822 329.368 439.391L336.299 433.793C332.584 441.673 321.055 462.715 325.386 470.678C330.384 475.676 347.328 464.681 352.326 461.365L356.224 458.683C353.642 465.863 349.81 474.61 353.492 481.924C356.957 488.071 365.52 488.704 371.918 487.855C368.419 498.067 375.966 503.315 383.846 507.847C386.179 509.363 388.844 510.729 390.277 513.261L390.377 513.394Z" fill="#C7C7C7"/>
<path d="M264.244 431.161C262.731 435.844 261.567 440.633 260.762 445.488C260.312 449.487 259.546 453.985 261.595 457.6C267.542 465.547 282.02 460.466 289.65 457.417L291.733 456.517C290.922 461.007 290.714 465.584 291.116 470.129C292.482 486.322 312.125 474.244 319.572 469.362L319.038 472.311C318.039 477.709 317.656 488.571 325.253 488.421C332.15 487.755 338.831 483.773 344.795 480.275L346.028 479.525C344.728 485.339 346.861 492.27 352.975 494.319C354.746 494.971 356.605 495.353 358.489 495.452C349.626 495.885 343.679 489.554 344.512 480.724L345.528 481.374C339.53 485.156 329.551 491.937 322.204 490.171C315.19 487.205 315.54 478.109 316.456 471.845L318.455 473.161C313.478 476.646 307.897 479.177 301.995 480.624C287.318 483.806 287.235 468.663 288.867 458.4L290.633 459.783C281.953 463.115 266.509 467.963 260.095 458.6C256.38 451.286 261.462 438.425 264.194 431.211L264.244 431.161Z" fill="#C7C7C7"/>
<path opacity="0.1" d="M402.089 542.483C396.757 543.966 386.195 534.836 380.781 525.34C375.366 515.844 361.372 508.68 361.372 508.68C331.75 523.674 321.904 503.265 321.904 503.265C281.47 519.742 272.69 492.353 272.69 492.353C290.067 508.83 321.887 495.802 321.887 495.802C341.063 515.444 361.272 502.916 361.272 502.916C365.621 503.54 370.006 503.874 374.4 503.915C380.014 503.832 370.218 472.028 361.388 447.871C353.058 425.047 322.037 391.144 307.96 383.963H308.093C325.219 391.86 340.197 401.489 351.909 414.051C370.934 434.443 386.795 488.488 392.776 509.43C399.107 531.571 402.089 542.483 402.089 542.483Z" fill="black"/>
<path d="M140.044 380.698C107.407 370.485 76.303 347.278 62.5918 315.207C60.3243 309.852 58.6483 304.266 57.5938 298.547C57.2422 297.243 57.2422 295.869 57.5938 294.565C58.8433 291.617 62.3419 293.666 64.0579 294.965C66.3772 296.676 68.6018 298.511 70.7219 300.463C68.1729 299.164 65.7239 297.731 63.1416 296.565C62.1178 295.996 60.9788 295.666 59.8096 295.598C59.8096 295.598 60.1594 295.415 60.1261 295.432C60.2365 296.228 60.4493 297.006 60.7592 297.748C73.4374 335.499 106.624 361.189 140.044 380.698Z" fill="white"/>
<path d="M108.723 405.138C115.587 410.136 124.716 410.003 132.863 411.219C140.593 412.068 151.306 412.702 158.819 414.551C145.918 419.351 131.716 419.321 118.835 414.468C114.754 412.518 109.922 409.769 108.739 405.071L108.723 405.138Z" fill="white"/>
<path d="M158.936 428.162C156.013 434.282 152.438 440.069 148.274 445.422C144.775 450.753 139.644 455.285 138.578 461.782C136.095 458.85 136.828 454.268 137.878 450.886C139.718 445.898 142.525 441.322 146.139 437.423C149.753 433.523 154.102 430.376 158.936 428.162Z" fill="white"/>
<path d="M264.894 388.395C268.965 393.796 272.439 399.622 275.256 405.771C278.372 411.335 280.054 417.966 285.252 421.898C281.504 422.764 277.772 419.999 275.256 417.516C268.078 409.566 264.351 399.092 264.894 388.395Z" fill="white"/>
</svg>
