<svg width="22" height="22" viewBox="0 0 22 22" fill="none" xmlns="http://www.w3.org/2000/svg">
<path d="M17.8088 16.4181C17.9003 16.5093 17.9729 16.6176 18.0224 16.7369C18.072 16.8562 18.0975 16.9841 18.0975 17.1133C18.0975 17.2425 18.072 17.3704 18.0224 17.4897C17.9729 17.609 17.9003 17.7174 17.8088 17.8086C17.6236 17.9914 17.3738 18.0939 17.1135 18.0939C16.8533 18.0939 16.6035 17.9914 16.4183 17.8086L11.2245 12.6148L6.03071 17.8086C5.84549 17.9914 5.59572 18.0939 5.33548 18.0939C5.07523 18.0939 4.82546 17.9914 4.64024 17.8086C4.54874 17.7174 4.47614 17.609 4.4266 17.4897C4.37706 17.3704 4.35156 17.2425 4.35156 17.1133C4.35156 16.9841 4.37706 16.8562 4.4266 16.7369C4.47614 16.6176 4.54874 16.5093 4.64024 16.4181L9.83404 11.2243L4.64024 6.03049C4.45586 5.8461 4.35227 5.59602 4.35227 5.33526C4.35227 5.20614 4.3777 5.07829 4.42711 4.959C4.47652 4.83971 4.54895 4.73133 4.64024 4.64003C4.73154 4.54873 4.83993 4.4763 4.95922 4.42689C5.07851 4.37748 5.20636 4.35205 5.33548 4.35205C5.59624 4.35205 5.84632 4.45564 6.03071 4.64003L11.2245 9.83382L16.4183 4.64003C16.6027 4.45564 16.8528 4.35205 17.1135 4.35205C17.3743 4.35205 17.6244 4.45564 17.8088 4.64003C17.9932 4.82441 18.0967 5.0745 18.0967 5.33526C18.0967 5.59602 17.9932 5.8461 17.8088 6.03049L12.615 11.2243L17.8088 16.4181Z" fill="#171717"/>
</svg>
